<?xml version="1.0" encoding="utf-8"?>
<!-- Generator: Adobe Illustrator 21.0.2, SVG Export Plug-In . SVG Version: 6.00 Build 0)  -->
<svg version="1.1" id="Layer_1" xmlns="http://www.w3.org/2000/svg" xmlns:xlink="http://www.w3.org/1999/xlink" x="0px" y="0px"
	 viewBox="0 0 570.7 174.1" style="enable-background:new 0 0 570.7 174.1;" xml:space="preserve">
<g>
	<path d="M40,89.2V38.8H57c4.3,0,7.8,1.2,10.5,3.6c2.7,2.4,4.1,5.5,4.1,9.3c0,2-0.5,3.9-1.5,5.5c-1,1.7-2.2,2.9-3.5,3.7
		c2.5,0.8,4.7,2.3,6.5,4.6c1.8,2.2,2.8,5,2.8,8.4c0,4.6-1.5,8.3-4.6,11.1c-3,2.8-7,4.2-11.8,4.2H40z M48.8,58h8.1
		c1.7,0,3.1-0.5,4.2-1.5c1.1-1,1.7-2.3,1.7-3.9c0-1.6-0.6-3-1.8-4c-1.2-1-2.7-1.5-4.6-1.5h-7.6V58z M48.8,81h9.9
		c2.4,0,4.5-0.7,6-2.1c1.6-1.4,2.3-3.2,2.3-5.5c0-2.3-0.8-4.1-2.3-5.5c-1.6-1.4-3.6-2.1-6-2.1h-9.9V81z"/>
	<path d="M85,89.2V38.8h8.8v50.4H85z"/>
	<path d="M119.8,90.1c-8.8,0-14.6-4.1-17.5-12.4l8.1-3.1c0.6,2.2,1.8,4,3.4,5.3s3.6,1.9,5.8,1.9c2,0,3.8-0.6,5.3-1.8
		c1.5-1.2,2.3-2.8,2.3-4.7c0-3.3-2.2-6.1-6.6-8.3l-6.5-3.5c-2.7-1.4-4.8-3.3-6.3-5.5c-1.5-2.3-2.3-4.7-2.3-7.3
		c0-3.7,1.2-6.7,3.7-9.1c2.5-2.4,5.7-3.6,9.8-3.6c3.3,0,6,0.8,8.2,2.3c2.2,1.6,4,3.9,5.4,6.9l-7.7,4c-1.2-3.4-3.2-5-5.9-5
		c-1.3,0-2.5,0.4-3.4,1.2c-0.9,0.8-1.4,1.8-1.4,2.9c0,1.2,0.4,2.4,1.1,3.3c0.7,1,2.1,2,4.1,3l6.7,3.6c6.5,3.6,9.7,8.7,9.7,15
		c0,4.2-1.5,7.7-4.4,10.5C128.6,88.7,124.7,90.1,119.8,90.1z"/>
	<path d="M180.4,84.2c-3.6,3.9-8.6,5.9-15.1,5.9s-11.5-2-15.1-5.9c-3.6-3.9-5.4-9.3-5.4-16V38.8h8.9v27.7c0,10.2,3.9,15.3,11.7,15.3
		c7.7,0,11.6-5.1,11.6-15.3V38.8h8.9v29.4C185.8,75,184,80.3,180.4,84.2z"/>
	<path d="M194.6,89.2v-7.5L221.3,47H196v-8.2h36.4v7.5L205.8,81h27.3v8.2H194.6z"/>
	<path d="M236.4,89.2l18.8-50.4h9.4l18.8,50.4h-9.5l-4.2-11.3h-19.7l-4.2,11.3H236.4z M252.7,69.9h14.3L259.9,49L252.7,69.9z"/>
	<path d="M321.1,90.1c-8.8,0-14.6-4.1-17.5-12.4l8.1-3.1c0.6,2.2,1.8,4,3.4,5.3s3.6,1.9,5.8,1.9c2,0,3.8-0.6,5.3-1.8
		s2.3-2.8,2.3-4.7c0-3.3-2.2-6.1-6.6-8.3l-6.5-3.5c-2.7-1.4-4.8-3.3-6.3-5.5c-1.5-2.3-2.3-4.7-2.3-7.3c0-3.7,1.2-6.7,3.7-9.1
		c2.5-2.4,5.7-3.6,9.8-3.6c3.3,0,6,0.8,8.2,2.3c2.2,1.6,4,3.9,5.4,6.9l-7.7,4c-1.2-3.4-3.2-5-5.9-5c-1.3,0-2.5,0.4-3.4,1.2
		c-0.9,0.8-1.4,1.8-1.4,2.9c0,1.2,0.4,2.4,1.1,3.3c0.7,1,2.1,2,4.1,3l6.7,3.6c6.5,3.6,9.7,8.7,9.7,15c0,4.2-1.5,7.7-4.4,10.5
		C329.9,88.7,326,90.1,321.1,90.1z"/>
	<path d="M340.6,89.2l18.8-50.4h9.4l18.8,50.4H378l-4.2-11.3h-19.7l-4.2,11.3H340.6z M356.8,69.9h14.3L364,49L356.8,69.9z"/>
	<path d="M394.3,89.2V38.8h8.8V81H422v8.2H394.3z"/>
	<path d="M467.4,82.6c-4.9,5-11,7.5-18.2,7.5c-7.2,0-13.3-2.5-18.2-7.5c-4.9-5-7.3-11.2-7.3-18.5c0-7.4,2.4-13.6,7.2-18.6
		s10.9-7.5,18.3-7.5c7.4,0,13.5,2.5,18.3,7.5s7.2,11.2,7.2,18.6C474.8,71.4,472.3,77.5,467.4,82.6z M437.4,76.8
		c3.2,3.4,7.2,5.1,11.8,5.1c4.7,0,8.6-1.7,11.8-5.1c3.2-3.4,4.8-7.6,4.8-12.8c0-5.1-1.6-9.3-4.9-12.7c-3.2-3.4-7.1-5.1-11.7-5.1
		c-4.6,0-8.5,1.7-11.8,5.1c-3.3,3.4-4.9,7.7-4.9,12.7C432.5,69.2,434.1,73.4,437.4,76.8z"/>
	<path d="M485.1,89.2V38.8h9.4L516.3,75V38.8h8.8v50.4h-9.3l-22-35.3v35.3H485.1z"/>
	<path d="M36.6,130v-23.8h4.1v9.5H50v-9.5h4.1V130H50v-10.4h-9.2V130H36.6z"/>
	<path d="M57.3,130l8.9-23.8h4.4l8.9,23.8H75l-2-5.3h-9.3l-2,5.3H57.3z M65,120.9h6.7l-3.3-9.9L65,120.9z"/>
	<path d="M82.7,130v-23.8h4.1V130H82.7z"/>
	<path d="M92.9,130v-23.8h8.2c2.1,0,3.8,0.6,5.1,1.8c1.3,1.2,1.9,2.7,1.9,4.7c0,1.6-0.5,2.9-1.5,4c-1,1.1-2.3,1.8-4,2.1l6.7,11.2
		h-4.7l-6.5-11h-1.2v11H92.9z M97.1,115.3h3.7c1,0,1.8-0.2,2.4-0.7c0.6-0.5,0.8-1.1,0.8-1.9c0-0.8-0.3-1.4-0.8-1.9
		c-0.6-0.5-1.3-0.7-2.4-0.7h-3.7V115.3z"/>
	<path d="M128,130.4c-4.1,0-6.9-1.9-8.3-5.8l3.8-1.5c0.3,1,0.8,1.9,1.6,2.5c0.8,0.6,1.7,0.9,2.7,0.9c1,0,1.8-0.3,2.5-0.9
		c0.7-0.6,1.1-1.3,1.1-2.2c0-1.6-1-2.9-3.1-3.9l-3.1-1.7c-1.3-0.7-2.3-1.6-3-2.6c-0.7-1.1-1.1-2.2-1.1-3.4c0-1.7,0.6-3.2,1.8-4.3
		s2.7-1.7,4.6-1.7c1.6,0,2.9,0.4,3.9,1.1c1,0.7,1.9,1.8,2.5,3.3l-3.6,1.9c-0.6-1.6-1.5-2.4-2.8-2.4c-0.6,0-1.2,0.2-1.6,0.6
		s-0.6,0.8-0.6,1.4c0,0.6,0.2,1.1,0.5,1.6c0.4,0.5,1,0.9,1.9,1.4l3.2,1.7c3.1,1.7,4.6,4.1,4.6,7.1c0,2-0.7,3.6-2.1,5
		C132.1,129.8,130.3,130.4,128,130.4z"/>
	<path d="M137.2,130l8.9-23.8h4.4l8.9,23.8h-4.5l-2-5.3h-9.3l-2,5.3H137.2z M144.8,120.9h6.7l-3.3-9.9L144.8,120.9z"/>
	<path d="M162.5,130v-23.8h4.1v19.9h8.9v3.9H162.5z"/>
	<path d="M197.1,126.9c-2.3,2.4-5.2,3.6-8.6,3.6c-3.4,0-6.3-1.2-8.6-3.6c-2.3-2.4-3.5-5.3-3.5-8.8c0-3.5,1.1-6.4,3.4-8.8
		c2.3-2.3,5.2-3.5,8.7-3.5c3.5,0,6.4,1.2,8.7,3.5c2.3,2.3,3.4,5.3,3.4,8.8C200.5,121.6,199.4,124.5,197.1,126.9z M182.9,124.2
		c1.5,1.6,3.4,2.4,5.6,2.4c2.2,0,4.1-0.8,5.6-2.4c1.5-1.6,2.3-3.6,2.3-6c0-2.4-0.8-4.4-2.3-6c-1.5-1.6-3.4-2.4-5.5-2.4
		c-2.2,0-4,0.8-5.6,2.4c-1.6,1.6-2.3,3.6-2.3,6C180.6,120.5,181.3,122.6,182.9,124.2z"/>
	<path d="M205.4,130v-23.8h4.5l10.3,17.1v-17.1h4.1V130h-4.4l-10.4-16.7V130H205.4z"/>
	<path d="M238.8,136.1V105h3.7v31.1H238.8z"/>
	<path d="M256.9,130v-23.8h8.1c2,0,3.7,0.6,4.9,1.7c1.3,1.1,1.9,2.6,1.9,4.4c0,1-0.2,1.8-0.7,2.6c-0.5,0.8-1,1.4-1.6,1.8
		c1.2,0.4,2.2,1.1,3.1,2.2c0.9,1.1,1.3,2.4,1.3,4c0,2.2-0.7,3.9-2.2,5.2c-1.4,1.3-3.3,2-5.6,2H256.9z M261.1,115.3h3.8
		c0.8,0,1.5-0.2,2-0.7c0.5-0.5,0.8-1.1,0.8-1.8c0-0.8-0.3-1.4-0.9-1.9c-0.6-0.5-1.3-0.7-2.2-0.7h-3.6V115.3z M261.1,126.1h4.7
		c1.2,0,2.1-0.3,2.8-1c0.7-0.6,1.1-1.5,1.1-2.6c0-1.1-0.4-2-1.1-2.6c-0.7-0.6-1.7-1-2.8-1h-4.7V126.1z"/>
	<path d="M278.2,130v-23.8h13.9v3.9h-9.8v5.6h9.1v3.9h-9.1v6.5h9.8v3.9H278.2z"/>
	<path d="M294.3,130l8.9-23.8h4.4l8.9,23.8H312l-2-5.3h-9.3l-2,5.3H294.3z M302,120.9h6.7l-3.3-9.9L302,120.9z"/>
	<path d="M335.9,127.7c-1.7,1.8-4.1,2.8-7.1,2.8c-3.1,0-5.4-0.9-7.1-2.8c-1.7-1.8-2.5-4.4-2.5-7.6v-13.9h4.2v13.1
		c0,4.8,1.8,7.2,5.5,7.2c3.6,0,5.5-2.4,5.5-7.2v-13.1h4.2v13.9C338.4,123.3,337.6,125.8,335.9,127.7z"/>
	<path d="M347.9,130v-19.9h-6.2v-3.9h17v3.9H352V130H347.9z"/>
	<path d="M366.5,130v-10.4l-7.6-13.4h4.6l5.1,9.2l5.1-9.2h4.6l-7.6,13.4V130H366.5z"/>
	<path d="M389.5,130v-23.8h8.1c2,0,3.7,0.6,4.9,1.7c1.3,1.1,1.9,2.6,1.9,4.4c0,1-0.2,1.8-0.7,2.6c-0.5,0.8-1,1.4-1.6,1.8
		c1.2,0.4,2.2,1.1,3.1,2.2c0.9,1.1,1.3,2.4,1.3,4c0,2.2-0.7,3.9-2.2,5.2s-3.3,2-5.6,2H389.5z M393.6,115.3h3.8c0.8,0,1.5-0.2,2-0.7
		c0.5-0.5,0.8-1.1,0.8-1.8c0-0.8-0.3-1.4-0.8-1.9c-0.6-0.5-1.3-0.7-2.2-0.7h-3.6V115.3z M393.6,126.1h4.7c1.2,0,2.1-0.3,2.8-1
		c0.7-0.6,1.1-1.5,1.1-2.6c0-1.1-0.4-2-1.1-2.6c-0.7-0.6-1.7-1-2.8-1h-4.7V126.1z"/>
	<path d="M407.5,130l8.9-23.8h4.4l8.9,23.8h-4.5l-2-5.3h-9.3l-2,5.3H407.5z M415.2,120.9h6.7l-3.3-9.9L415.2,120.9z"/>
	<path d="M432.9,130v-23.8h8.2c2.1,0,3.8,0.6,5.1,1.8c1.3,1.2,1.9,2.7,1.9,4.7c0,1.6-0.5,2.9-1.5,4c-1,1.1-2.3,1.8-4,2.1l6.7,11.2
		h-4.7l-6.5-11H437v11H432.9z M437,115.3h3.7c1,0,1.8-0.2,2.4-0.7s0.8-1.1,0.8-1.9c0-0.8-0.3-1.4-0.8-1.9s-1.3-0.7-2.4-0.7H437
		V115.3z"/>
	<path d="M461.6,136.1V105h3.7v31.1H461.6z"/>
	<path d="M485.9,130.4c-4.1,0-6.9-1.9-8.3-5.8l3.8-1.5c0.3,1,0.8,1.9,1.6,2.5c0.8,0.6,1.7,0.9,2.7,0.9c1,0,1.8-0.3,2.5-0.9
		c0.7-0.6,1.1-1.3,1.1-2.2c0-1.6-1-2.9-3.1-3.9l-3.1-1.7c-1.3-0.7-2.3-1.6-3-2.6c-0.7-1.1-1.1-2.2-1.1-3.4c0-1.7,0.6-3.2,1.8-4.3
		c1.2-1.1,2.7-1.7,4.6-1.7c1.6,0,2.9,0.4,3.9,1.1c1,0.7,1.9,1.8,2.5,3.3l-3.6,1.9c-0.6-1.6-1.5-2.4-2.8-2.4c-0.6,0-1.2,0.2-1.6,0.6
		c-0.4,0.4-0.6,0.8-0.6,1.4c0,0.6,0.2,1.1,0.5,1.6c0.4,0.5,1,0.9,1.9,1.4l3.2,1.7c3.1,1.7,4.6,4.1,4.6,7.1c0,2-0.7,3.6-2.1,5
		C490.1,129.8,488.2,130.4,485.9,130.4z"/>
	<path d="M498,130v-23.8h7.7c2.1,0,3.8,0.6,5.2,1.9c1.4,1.3,2,2.9,2,4.9c0,1.9-0.7,3.6-2,4.8c-1.3,1.3-3.1,1.9-5.2,1.9h-3.5V130H498
		z M502.2,116h3.3c1,0,1.9-0.3,2.4-0.9c0.6-0.6,0.9-1.3,0.9-2.1c0-0.8-0.3-1.5-0.9-2.1c-0.6-0.6-1.4-0.9-2.4-0.9h-3.3V116z"/>
	<path d="M512,130l8.9-23.8h4.4l8.9,23.8h-4.5l-2-5.3h-9.3l-2,5.3H512z M519.7,120.9h6.7l-3.3-9.9L519.7,120.9z"/>
</g>
</svg>
