<svg style="position: absolute; width: 0; height: 0; overflow: hidden;" version="1.1" xmlns="http://www.w3.org/2000/svg" xmlns:xlink="http://www.w3.org/1999/xlink">
<defs>
<symbol id="icon-ents24" viewBox="0 0 32 32">
<title>ents24</title>
<path d="M13.302 21.286l-0.606-7.657-0.944 0.080c-0.051 0.012-0.105-0.001-0.145-0.035s-0.062-0.085-0.059-0.137l-0.091-1.198c-0.010-0.125 0.047-0.212 0.173-0.221l1.263-0.118h-11.832c-0.68 0-1.062 0.637-1.062 1.107v2.832c0.412 0.056 0.715 0.413 0.704 0.828 0.011 0.415-0.293 0.771-0.704 0.826v2.828c0 0.399 0.331 1.015 1.118 1.015h1.333l-0.661-8.343c-0.010-0.125 0.047-0.185 0.173-0.195l2.914-0.228c0.052-0.011 0.105 0.003 0.145 0.037s0.061 0.086 0.058 0.138l0.095 1.199c0.012 0.051-0.001 0.105-0.035 0.145s-0.085 0.062-0.137 0.059l-1.533 0.122 0.154 1.938 1.333-0.105c0.051-0.011 0.105 0.002 0.145 0.036s0.062 0.085 0.058 0.137l0.095 1.198c0.011 0.051-0.002 0.105-0.036 0.145s-0.085 0.062-0.137 0.058l-1.332 0.106 0.219 2.761 1.531-0.122c0.125-0.010 0.193 0.032 0.203 0.158l0.061 0.754h1.148l-0.69-8.694c-0.010-0.125 0.047-0.185 0.173-0.195l0.886-0.067c0.056-0.003 0.112 0.013 0.159 0.044 0.047 0.027 0.085 0.067 0.11 0.115l1.739 4.21-0.341-4.309c-0.011-0.051 0.002-0.105 0.036-0.145s0.085-0.062 0.137-0.058l1.195-0.096c0.051-0.011 0.105 0.002 0.145 0.036s0.062 0.085 0.058 0.137l0.716 9.031c0 0 0-0.011 0-0.011h2.207c-0.026 0.001-0.051-0.008-0.071-0.023-0.042-0.028-0.068-0.074-0.071-0.124z"></path>
<path d="M8.491 21.432h1.395l-1.73-4.229z"></path>
<path d="M31.899 15.924h0.045v-2.778c0-0.899-0.691-1.146-1.070-1.146h-11.3c0.106 0.129 0.201 0.267 0.283 0.412 0.107 0.204 0.17 0.428 0.187 0.658l0.040 0.516c0.017 0.111-0.049 0.219-0.155 0.255l-1.196 0.425c-0.113 0.045-0.176 0.006-0.186-0.12l-0.071-0.875c-0.006-0.086-0.047-0.165-0.112-0.221s-0.15-0.083-0.236-0.076l-0.108 0.008c-0.086 0.007-0.165 0.047-0.221 0.113s-0.083 0.151-0.075 0.236l0.097 1.225c0.012 0.087 0.036 0.171 0.071 0.251 0.040 0.079 0.096 0.148 0.165 0.203l1.863 1.179c0.133 0.090 0.239 0.215 0.306 0.362 0.054 0.139 0.095 0.283 0.122 0.43l0.183 2.315c0.019 0.227-0.009 0.455-0.082 0.67-0.14 0.419-0.437 0.768-0.828 0.973-0.2 0.106-0.421 0.17-0.647 0.187l-0.51 0.040c-0.226 0.019-0.454-0.009-0.669-0.082-0.419-0.141-0.767-0.438-0.971-0.83-0.106-0.201-0.17-0.422-0.186-0.649l-0.098-1.291c-0.018-0.112 0.048-0.221 0.156-0.256l1.196-0.421c0.113-0.047 0.175-0.007 0.186 0.121l0.131 1.656c0.006 0.086 0.047 0.165 0.112 0.221s0.15 0.083 0.236 0.076l0.108-0.009c0.086-0.006 0.165-0.047 0.221-0.112s0.083-0.15 0.076-0.236l-0.142-1.777c-0.015-0.104-0.042-0.206-0.079-0.305-0.037-0.092-0.1-0.171-0.181-0.229l-1.841-1.195c-0.128-0.096-0.236-0.217-0.319-0.354-0.077-0.153-0.12-0.32-0.127-0.491l-0.128-1.616c-0.019-0.227 0.009-0.455 0.082-0.67 0.070-0.213 0.178-0.411 0.32-0.585 0.034-0.040 0.071 0.010 0.108-0.133h-1.356l0.095 1.214c0.010 0.126-0.048 0.202-0.173 0.212l-0.954 0.080 0.607 7.662c0.010 0.126-0.048 0.178-0.173 0.188l-1.138 0.076h17.284c0.588 0.012 1.077-0.45 1.098-1.038v-2.792h-0.045c-0.464 0-0.84-0.376-0.84-0.84s0.376-0.84 0.84-0.84zM22.403 20.029c-0.13 0-0.248-0.078-0.298-0.198s-0.023-0.259 0.069-0.351c0.092-0.092 0.231-0.12 0.351-0.070s0.199 0.167 0.199 0.298c0 0.085-0.034 0.167-0.094 0.228s-0.142 0.094-0.228 0.094zM22.403 18.912c-0.178-0-0.321-0.145-0.321-0.322s0.144-0.322 0.321-0.322c0.178-0 0.322 0.143 0.323 0.321s-0.144 0.322-0.321 0.322zM22.404 17.771c-0.131 0-0.248-0.078-0.298-0.199s-0.022-0.259 0.070-0.352c0.093-0.092 0.231-0.119 0.352-0.069s0.198 0.169 0.198 0.299c0 0.085-0.034 0.167-0.094 0.228s-0.142 0.095-0.228 0.095zM22.404 16.635c-0.178 0-0.322-0.143-0.323-0.321s0.142-0.322 0.32-0.324c0.178-0.001 0.323 0.142 0.324 0.319 0 0.178-0.144 0.322-0.321 0.322zM22.404 15.494c-0.178 0-0.322-0.143-0.323-0.321s0.143-0.322 0.321-0.323c0.178-0 0.322 0.143 0.323 0.321 0 0.085-0.034 0.167-0.094 0.228s-0.142 0.095-0.228 0.095zM22.404 14.355c-0.178 0-0.322-0.143-0.323-0.321s0.143-0.322 0.321-0.323c0.178-0 0.322 0.143 0.323 0.321s-0.144 0.322-0.321 0.322zM27.006 20.047c-1.282 0.005-2.44-0.764-2.933-1.946s-0.225-2.546 0.68-3.454c0.905-0.908 2.268-1.18 3.452-0.69s1.956 1.646 1.955 2.928c0.001 0.839-0.331 1.643-0.924 2.237s-1.396 0.928-2.235 0.929z"></path>
<path d="M26.202 17.352c-0.011 0.018-0.021 0.034-0.032 0.050s-0.021 0.033-0.032 0.050c-0.049 0.076-0.092 0.156-0.132 0.237-0.035 0.074-0.063 0.139-0.084 0.195-0.025 0.063-0.046 0.125-0.063 0.185h0.816c0.013-0.002 0.026 0.002 0.036 0.012s0.014 0.023 0.012 0.036v0.501c0.002 0.013-0.002 0.026-0.012 0.036s-0.023 0.014-0.036 0.012h-1.39c-0.025 0-0.040-0.016-0.047-0.047-0.010-0.065-0.017-0.131-0.018-0.198 0-0.065 0-0.124 0-0.176 0.003-0.060 0.010-0.12 0.021-0.179 0.007-0.064 0.019-0.128 0.037-0.19 0.017-0.060 0.035-0.114 0.053-0.164 0.020-0.053 0.044-0.104 0.071-0.153 0.091-0.165 0.177-0.31 0.258-0.437s0.152-0.235 0.212-0.326c0.074-0.105 0.142-0.197 0.205-0.274 0.017-0.034 0.024-0.072 0.021-0.11-0.004-0.053-0.004-0.105 0-0.158v-0.623c0-0.034-0.013-0.066-0.037-0.090s-0.056-0.037-0.089-0.037h-0.042c-0.034-0-0.066 0.013-0.090 0.037s-0.037 0.056-0.037 0.090v0.348c0.003 0.045-0.027 0.085-0.071 0.095l-0.479 0.127c-0.047 0.014-0.071-0.003-0.071-0.052v-0.544c-0-0.089 0.017-0.176 0.052-0.258 0.068-0.159 0.195-0.286 0.354-0.354 0.082-0.035 0.17-0.053 0.258-0.052h0.205c0.089-0.001 0.177 0.017 0.258 0.052 0.159 0.068 0.286 0.195 0.354 0.354 0.035 0.081 0.053 0.169 0.052 0.258v0.627c0 0.107-0.013 0.213-0.040 0.316s-0.071 0.201-0.13 0.29c-0.053 0.084-0.11 0.17-0.171 0.258s-0.12 0.174-0.176 0.258z"></path>
<path d="M28.757 17.367c0.013 0.012 0.021 0.029 0.021 0.047v0.438c0 0.020-0.007 0.039-0.021 0.052-0.014 0.011-0.030 0.018-0.047 0.021h-0.169v0.664c0.002 0.019-0.005 0.038-0.019 0.052s-0.033 0.021-0.052 0.019h-0.469c-0.019 0.002-0.038-0.005-0.052-0.019s-0.021-0.033-0.019-0.052v-0.664h-0.823c-0.018-0-0.035-0.008-0.047-0.021-0.015-0.013-0.023-0.032-0.021-0.052v-0.448c-0.001-0.013 0.001-0.025 0.006-0.037-0.001-0.006 0.001-0.012 0.005-0.016 0.13-0.252 0.244-0.512 0.34-0.779 0.090-0.251 0.16-0.479 0.212-0.685s0.090-0.382 0.113-0.53c0.023-0.148 0.038-0.253 0.045-0.316 0-0.011 0.004-0.023 0.011-0.032l0.024-0.023c0.011-0.010 0.025-0.015 0.040-0.013h0.632c0.019-0.002 0.038 0.005 0.052 0.019s0.021 0.033 0.019 0.052v2.302h0.169c0.017 0.003 0.034 0.010 0.047 0.021h0.004zM27.919 16.134c-0.021 0.109-0.049 0.228-0.084 0.358-0.028 0.112-0.067 0.24-0.118 0.384s-0.112 0.3-0.182 0.469h0.384v-1.211z"></path>
</symbol>
<symbol id="icon-kerastase" viewBox="0 0 192.756 192.756">
<title>kerastase</title>
<g fill-rule="evenodd" clip-rule="evenodd"><path fill="#000" d="M0 0h192.756v192.756H0V0z"/><path d="M9.522 52.591s2.242 33.832 1.978 48.337c-.284 15.562-2.996 45.551-2.996 45.551h23.341s.754-15.748 1.018-22.869c.263-7.123.395-17.145.395-17.145s8.044 12.527 15.429 21.098c7.384 8.572 17.406 18.99 17.406 18.99s13.206-.035 17.924-.035c3.956 0 9.372-.359 9.372-.359s-14.726-14.332-26.306-29.176C55.313 102.899 48.82 92.358 48.82 92.358s9.889-13.187 15.559-20.176c5.671-6.988 16.087-18.857 16.087-18.857l-4.878-7.12s-13.392 15.42-20.745 25.522c-6.296 8.373-21.594 30.957-21.594 30.957s-.123-17.843-.649-25.887-1.583-24.131-1.583-24.131l-21.495-.075z" fill="#bbbcbf"/><path d="M39.73 95.059l-3.193 3.246c3.006 3.473 6.125 6.869 9.129 10.381l3.045 3.773v.189c-.754-.037-1.43-.148-2.067-.148-.715 0-1.426.111-2.104.148-.828-1.207-1.653-2.344-2.593-3.436l-8.189-9.625c-.188-.15-.638-.266-.638-.111v13.172c-.6-.037-1.122-.148-1.644-.148-.562 0-1.122.111-1.645.148v-25.81c.523.038 1.083.143 1.645.143.522 0 1.044-.105 1.644-.143v11.654c.035.227.562.076.939-.227.677-.527 1.465-1.318 1.992-1.848l9.241-9.58c.488.038.978.143 1.503.143.451 0 .939-.105 1.463-.143l-8.528 8.222zM54.787 100.895h4.702c.912 0 1.791-.121 2.7-.15-.03.242-.107.516-.107.791 0 .242.077.516.107.852-.909-.029-1.788-.152-2.7-.152h-4.702v8.912c1.852.061 3.671-.061 5.492-.125a20.8 20.8 0 0 0 2.791-.275c-.031.34-.081.613-.081.916 0 .305.05.609.081.914H52.112V91.805h10.775c-.033.334-.074.609-.074.915 0 .304.041.607.074.913-.911-.183-1.82-.272-2.73-.335l-3.036-.062h-2.334v7.659zM69.751 92.938c1.274-.063 3.338-.154 4.46.029 2.276.368 3.34 1.738 3.34 3.847 0 2.379-1.671 3.902-3.887 4.361-1.547.305-3.489.184-3.914.154v-8.391h.001zm-2.675 19.744c.427-.029.881-.105 1.337-.105.426 0 .851.076 1.338.105V102.49h1.152l2.428 2.869 3.582 4.674a122.36 122.36 0 0 1 1.913 2.648c.551-.029 1.159-.105 1.737-.105.578 0 1.123.076 1.762.105l-.58-.758-1.456-1.709-6.26-7.967c3.065-.553 6.23-2.262 6.23-5.803 0-3.082-2.07-4.637-6.746-4.637h-6.438v20.875h.001zM96.204 103.141h-6.683l3.311-7.809 3.372 7.809zm-2.278-11.799h-.697l-9.472 21.339c.333-.029.667-.105 1.062-.105.364 0 .698.076 1.122.105.85-2.869 1.943-5.564 3.004-8.26h7.713c1.217 2.787 2.307 5.729 3.188 8.26.514-.029 1.029-.105 1.607-.105.516 0 1.002.076 1.576.105l-9.103-21.339zM105.965 108.549c1.18 1.951 2.541 3.17 4.902 3.17 2.455 0 4.209-2.043 4.209-4.451 0-5.672-9.471-3.172-9.471-10.062 0-3.934 3.082-5.862 6.715-5.862 1.455 0 3.211.461 4.334 1.47-.363.793-.576 1.646-.818 2.5h-.305c-.637-1.646-1.969-2.654-3.754-2.654-2.09 0-3.816 1.404-3.816 3.569 0 5.609 9.545 3.355 9.545 9.85 0 4.361-3.369 6.959-7.486 6.959-1.484 0-3.902-.645-4.934-1.773.303-.885.457-1.801.576-2.715h.303v-.001zM129.328 112.744c-.486-.031-.91-.088-1.338-.088-.455 0-.912.057-1.336.088V93.271c-3.064 0-4.916.184-6.645.366.029-.305.092-.609.092-.917 0-.302-.062-.576-.092-.911h15.66c-.031.335-.129.609-.129.911 0 .308.098.612.129.917a52.676 52.676 0 0 0-6.342-.366v19.473h.001zM147.754 103.141h-6.684l3.309-7.809 3.375 7.809zm-2.277-11.799h-.701l-9.469 21.339c.334-.029.668-.105 1.061-.105.365 0 .699.076 1.123.105.85-2.869 1.941-5.564 3.004-8.26h7.713c1.213 2.787 2.311 5.729 3.188 8.26.516-.029 1.029-.105 1.607-.105.516 0 1.002.076 1.578.105l-9.104-21.339zM157.484 108.549c1.18 1.951 2.539 3.17 4.902 3.17 2.455 0 4.209-2.043 4.209-4.451 0-5.672-9.475-3.172-9.475-10.062 0-3.934 3.086-5.862 6.717-5.862 1.457 0 3.213.461 4.336 1.47-.365.793-.578 1.646-.818 2.5h-.305c-.637-1.646-1.969-2.654-3.756-2.654-2.09 0-3.814 1.404-3.814 3.569 0 5.609 9.541 3.355 9.541 9.85 0 4.361-3.363 6.959-7.484 6.959-1.482 0-3.902-.645-4.932-1.773.301-.885.455-1.801.576-2.715h.303v-.001zM175.967 100.895h4.703c.91 0 1.789-.121 2.701-.15-.029.242-.107.516-.107.791 0 .242.078.516.107.852-.912-.029-1.791-.152-2.701-.152h-4.703v8.912c1.852.061 3.674-.061 5.492-.125a20.829 20.829 0 0 0 2.793-.275c-.031.34-.08.613-.08.916 0 .305.049.609.08.914h-10.957V91.805h10.773c-.029.334-.072.609-.072.915 0 .304.043.607.072.913-.912-.183-1.818-.272-2.729-.335l-3.037-.062h-2.336v7.659h.001zM55.757 89.944l3.431-3.288h2.216l-4.682 3.288h-.965zM76.5 117.146a12.5 12.5 0 0 1 1.427.01c.786.07 1.122.605 1.122 1.283 0 .881-.575 1.508-1.567 1.605a5.162 5.162 0 0 1-.981 0v-2.898H76.5zm0 3.29c.249 0 .892.07 1.339-.021 1.398-.277 2.121-.826 2.121-2.025 0-1.201-.634-1.625-2.559-1.625h-1.774v6.77c.138-.012.289-.037.436-.037.14 0 .279.025.438.037v-3.099H76.5zM94.217 120.447h-2.174l1.076-2.527 1.098 2.527zm-.743-3.812h-.228l-3.087 6.898c.109-.012.216-.037.347-.037.118 0 .228.025.368.037.277-.928.631-1.803.981-2.678h2.51c.397.904.754 1.859 1.042 2.678.166-.012.334-.037.523-.037.169 0 .329.025.516.037l-2.972-6.898zM109.877 117.135c.416-.02 1.092-.049 1.459.01.744.119 1.092.564 1.092 1.246 0 .77-.547 1.262-1.27 1.41-.506.098-1.141.061-1.281.051v-2.717zm-.871 6.398c.139-.012.287-.037.436-.037.141 0 .279.025.436.037v-3.309h.377l.793.934 1.174 1.518c.207.279.402.555.619.857.178-.012.373-.037.559-.037.191 0 .367.025.576.037l-.188-.244-.477-.555-2.033-2.592c1.002-.176 2.023-.727 2.023-1.873 0-.998-.668-1.502-2.193-1.502h-2.102v6.766zM127.104 116.764c.139.01.289.037.436.037.141 0 .277-.027.436-.037v6.77c-.158-.012-.295-.037-.436-.037-.146 0-.297.025-.436.037v-6.77zM141.814 122.191c.387.633.836 1.027 1.607 1.027.801 0 1.377-.662 1.377-1.438 0-1.834-3.105-1.025-3.105-3.252 0-1.271 1.018-1.895 2.203-1.895.475 0 1.053.148 1.42.473-.119.26-.189.533-.268.811h-.1c-.211-.531-.645-.859-1.23-.859-.682 0-1.248.455-1.248 1.154 0 1.812 3.125 1.084 3.125 3.184 0 1.41-1.104 2.246-2.451 2.246-.486 0-1.281-.207-1.619-.572.1-.285.148-.582.188-.879h.101z"/></g>
</symbol>


<symbol id="icon-arrow-left" viewBox="0 0 32 32">
<title>arrow_back</title>
<path d="M26.688 14.688v2.625h-16.251l7.437 7.5-1.875 1.875-10.688-10.688 10.688-10.688 1.875 1.875-7.437 7.5h16.251z"></path>
</symbol>
<symbol id="icon-arrow-right" viewBox="0 0 32 32">
<title>arrow_forward</title>
<path d="M16 5.312l10.688 10.688-10.688 10.688-1.875-1.875 7.437-7.5h-16.251v-2.625h16.251l-7.437-7.5z"></path>
</symbol>
<symbol id="icon-widgets" viewBox="0 0 32 32">
<title>widgets</title>
<path d="M22.188 2.251l7.563 7.563-7.563 7.5h5.812v10.688h-10.688v-10.688h4.875l-7.5-7.5v4.875h-10.688v-10.688h10.688v5.812zM4 28v-10.688h10.688v10.688h-10.688z"></path>
</symbol>


<symbol id="icon-facebook" viewBox="0 0 32 32">
<title>facebook</title>
<path d="M19 6h5v-6h-5c-3.86 0-7 3.14-7 7v3h-4v6h4v16h6v-16h5l1-6h-6v-3c0-0.542 0.458-1 1-1z"></path>
</symbol>
<symbol id="icon-redken" viewBox="0 0 192.756 192.756">
<title>redken</title>
<path fill="#000" d="M0 0h192.756v192.756H0V0z"/><path d="M60.73 101.811a1.941 1.941 0 0 0 0-.305c-.096-.021-.162-.021-.2 0l-.243.143c-.447.26-1.223.58-2.328.961-1.08.373-2.557.691-4.426.961-1.755.254-3.711.227-5.866-.08a12.57 12.57 0 0 1-2.733-.709c-.229-.088-.372-.189-.425-.312-.013-.025-.034-1.139-.065-3.338l-.013-8.772c.11-.164.443-.327.998-.491.918-.272 2.156-.327 3.714-.164.775.082 1.878.34 3.313.77l.27.081.27.082c.051.015.129-.004.231-.054 0-2.037-.024-3.348-.069-3.934l-8.798-.193-.132-9.095c-.013-.465.021-.755.105-.868.267-.362.873-.581 1.817-.657.013-.001.108-.013.282-.038.295-.04 1.492-.06 3.589-.06 1.462 0 2.32.013 2.572.04.815.086 1.518.268 2.372.851l.238.159c.189.126.345.234.469.328.201.148.354.238.458.266l-.033-4.837-18.434.044c.496.805.851 1.524 1.066 2.152.238.685.364 1.376.381 2.074l.271 23.958c-.007.66.005 1.262.033 1.811.056 1.055-.121 1.816-.529 2.289-.535.619-.793.701-1.778.258-1.085-.488-2.386-1.457-3.911-2.904a50.31 50.31 0 0 1-2.497-2.59c-2.688-2.967-5.343-6.212-7.966-9.736a.257.257 0 0 1 .065-.193c1.785-.401 3.806-1.443 4.631-1.979 2.752-1.777 4.02-4.198 3.809-7.27-.156-2.277-1.413-4.497-3.325-5.763-1.111-.736-1.922-1.272-4.356-1.902-1.07-.28-2.219-.398-3.448-.355-.692.022-3.586.03-8.683.02-1.762-.003-2.736.025-2.921.085.024.109.106.29.243.546.453.839.878 2.701.906 3.498l.169 26.958a23.068 23.068 0 0 1-.445 1.766c-.087.309-.325.861-.713 1.662l6.942.201c.428.02.686-.037.776-.178-.791-1.387-1.389-2.617-1.366-4.561l.357-26.815c1.07-.286 3.667-.284 5.228.036 1.858.38 3.176 1.07 3.958 2.069 1.003 1.281 1.402 2.799 1.196 4.55-.285 2.437-1.802 4.367-4.558 5.797-.911.472-1.967.842-3.171 1.104-1.107.242-1.362.785-.762 1.628.121.168.624.79 1.512 1.862a88.81 88.81 0 0 1 1.695 2.097c.082.105 1.345 1.646 3.795 4.626a117.301 117.301 0 0 1 1.879 2.314c.68.895 1.389 1.727 2.126 2.492l.206.215c1.275 1.322 2.639 2.154 4.096 2.498.718.17 1.469.236 2.258.211.164-.006 2.834-.01 8.016-.01l12.71-.039c1.684 0 2.549-.008 2.596-.021.203-.061.911-.711 1.222-1.264.822-1.473 1.273-2.797 1.354-3.976zM149.895 101.396c.008-.1.014-.203.016-.303a.213.213 0 0 0-.172-.08c-.891.633-3.748 1.758-7.881 2.164-4.008.395-7.641-.549-8.172-1.117l-.109-12.108c.154-.286.768-.51 1.836-.676 2.615-.406 5.203.414 6.48.825.164.053.254.077.273.075a.323.323 0 0 0 .186-.106c-.037-2.475-.068-3.787-.098-3.934-.17-.017-1.438-.024-3.807-.024H137l-.293.021h-2.42l-.291-.011-.297.011c-.066.003-.131-.051-.199-.162l-.119-9.405c-.045-.624.537-1.006 1.748-1.14.721-.082 1.713-.123 2.975-.123l.883-.02c1.795 0 2.879.034 3.254.102.908.164 1.752.562 2.533 1.194.209.17.363.286.463.343.072-.146.1-.433.076-.858a40.3 40.3 0 0 1-.02-3.031c.021-.714-.057-1.07-.23-1.07l-18.217.243c.521.893.852 1.513.986 1.859.43 1.101.443 1.277.473 2.966l.293 24.543c.012.887-.096 1.578-.324 2.076-.396.861-.77 1.297-1.121 1.307-.391.014-1.148-.354-2.268-1.098-.785-.52-1.814-1.412-3.092-2.68l-11.455-13.706 7.963-9.725c1.59-1.934 2.889-3.584 3.896-4.944.223-.302.338-.464.346-.488a.511.511 0 0 0 .016-.233c-.1.004-.201.004-.301 0-.549-.018-6.168-.044-6.832.029.348 1.05.139 2.089-.627 3.119l-9.553 12.672c-.268.552-.174 1.108.281 1.667l9.92 11.92c1.301 1.582 2.309 2.666 3.021 3.256l.227.188c1.963 1.621 3.725 1.746 5.299 1.746h2.402c2.213 0 3.688-.016 4.422-.041.369-.016 2.848-.02 7.439-.02h.303l.295-.021c.197-.014.895-.021 2.094-.021h.303c3.938 0 5.941-.006 6.008-.018.574-.119 1.422-1.354 1.711-1.971.201-.432.826-2.09.924-3.192zM184.252 71.931l-6.613-.042c-.008.055-.008.089 0 .103l.168.251c.354.536.652 1.179.9 1.93.236.721.359 1.42.367 2.099l.004.307.252 19.031c.014 1.213-.947 1.102-1.219.911l-20.695-24.589-6.133.131c.029.053.135.229.318.531.324.531 1.121 2.245 1.141 3.537.01.632.033 2.776.072 6.433 0 .171.008.476.016.916.014.729.062 4.389.141 10.982 0 .071.014.985.045 2.747.055 3.473.074 5.303.053 5.49-.053.469-.629 2.557-.979 3.223l-.145.27c-.1.188-.145.312-.137.375.041.039.074.061.102.061l6.41-.082c.014 0 .021-.008.021-.021-.021-.064-.158-.334-.412-.805-.398-.738-.916-2.223-.943-3.234-.029-1.086-.1-7.226-.219-18.42 0-.135-.014-.954-.035-2.454-.01-.729.176-1.082.562-1.056l18.082 21.067c1.303 1.582 2.398 2.59 4.34 4.186.785.646 1.545 1.133 2.283 1.461.943.42 1.404.057 1.379-1.086-.014-.684-.066-4.738-.154-12.164-.004-.2-.021-1.112-.057-2.734l-.166-14.596c.004-1.12.057-1.874.156-2.262.211-.82.523-1.564.936-2.237l.159-.26zM94.731 89.076c-.102-1.998-.407-3.792-.913-5.384-.218-.685-.385-1.16-.503-1.43-1.404-3.215-3.28-5.441-6.689-7.478-1.375-.821-2.958-1.452-4.748-1.89-1.802-.44-3.499-.66-5.091-.66l-14.846.058c-.075.037-.036.176.119.419 1.209 1.892 1.286 3.113 1.3 4.602l.218 18.013c.065 4.888.088 7.431.068 7.634-.033.346-.169.83-.403 1.457a9.968 9.968 0 0 1-.941 1.889c-.204.322-.304.516-.299.58l14.819-.074c3.837-.35 7.186-1.365 10.045-3.043 5.517-3.234 8.158-8.921 7.864-14.693z"/><path d="M88.32 94.831c-.614 1.615-1.468 2.962-2.561 4.041-2.043 2.014-4.567 3.385-7.573 4.113-3.565.863-6.467.818-8.708-.135a11.15 11.15 0 0 1-.564-.244.57.57 0 0 1-.204-.221c-.017-.043-.116-8.788-.302-26.234.557-.491 2.836-.676 6.838-.558 3.732.109 6.846 1.152 9.348 3.125.065.052 1.349 1.188 2.063 2.212 1.076 1.54 2.064 3.421 2.449 7.453.208 2.18-.005 4.395-.786 6.448z" fill="#000"/><path d="M105.1 106.773l-.01-.08-.172-.244a3.895 3.895 0 0 1-.135-.271l-.131-.275c-.002-.006-.051-.094-.139-.268-.531-.994-.809-2.164-.828-3.51l-.221-26.824c.139-.878.484-1.778 1.031-2.698.156-.265.191-.398.1-.403l-.445-.019h-6.814l-.504.061c-.005.049.051.166.166.349.842 1.321 1.276 2.714 1.297 4.175l.301 26.102c-.07.738-.705 2.859-1.105 3.559l-.154.268a.24.24 0 0 0 0 .08c.031.057.119.082.264.082h4.537c1.786-.002 2.772-.027 2.962-.084zM60.224 118.203h3.383l.906 2.387h1.128l-3.212-8.145h-1.054l-3.088 8.145h1.079l.858-2.387zM166.105 120.59h1.03v-3.371l3.285-4.774h-1.225l-2.549 3.764-2.402-3.764h-1.299l3.16 4.846v3.299zM183 118.961c-.098.049-.195.098-.318.146-.662.344-1.299.518-1.887.518-1.447 0-2.625-1.01-2.918-2.535a5.18 5.18 0 0 1-.072-.885c0-.961.293-1.92 1.004-2.658.562-.59 1.371-.787 2.084-.787.686 0 1.273.197 1.494.344l.27.174a.217.217 0 0 0 .148.049c.293 0 .316-.344.316-.418 0-.123.025-.248.025-.32l.025-.074-.051-.098c-.219-.322-.684-.492-1.297-.615a4.51 4.51 0 0 0-.957-.1c-1.766 0-3.162.959-3.75 2.363-.295.764-.441 1.502-.441 2.238 0 1.158.367 2.24.955 2.953.736.959 1.889 1.426 3.383 1.426.785 0 1.643-.27 2.035-.564.098-.074.27-.223.27-.445v-.86l-.318.148zM74.428 120.59h1.104l2.917-8.145h-1.177l-2.306 6.719-2.304-6.719h-1.201l2.967 8.145zM150.047 120.59h1.031v-6.322l4.387 6.322h.955v-8.145h-1.078v6.371l-4.363-6.371h-.932v8.145zM98.09 120.682h1.029v-6.323l4.363 6.323h.981v-8.145h-1.078v6.373l-4.364-6.373h-.931v8.145zM112.748 112.527v5.486c0 .936.344 1.699.908 2.164.465.371 1.227.691 2.182.691.639 0 1.031-.1 1.373-.223.906-.393 1.398-.91 1.617-1.869.1-.32.123-.615.123-.938v-5.312h-1.029v5.312c0 .643-.148 1.035-.318 1.281-.172.27-.418.467-.711.615s-.639.172-1.006.172c-.809 0-1.299-.221-1.568-.492-.344-.295-.539-.688-.539-1.328v-5.561h-1.032v.002zM24.052 120.59h1.054v-7.158h2.598v-.987h-6.252v.961h2.624l-.024 7.184zM126.76 120.59h5.687v-.936h-4.635v-2.756h4.145v-.91h-4.145v-2.582h4.536l-.026-.961h-5.539l-.023 8.145zM85.101 120.682h5.688v-.934h-4.634v-2.756h4.143v-.91h-4.143V113.5h4.534l-.023-.963h-5.541l-.024 8.145zM34.812 120.59h1.055v-3.764h4.143v3.764h1.005v-8.145H40.01v3.471h-4.143v-3.471h-1.031l-.024 8.145zM8.927 118.629c0 .762.417 1.477 1.177 1.895.318.197.809.346 1.52.346 1.619 0 2.746-1.133 2.746-2.758 0-.859-.344-1.646-.811-2.064-.415-.396-1.103-.666-1.862-.666-.539 0-1.03.125-1.471.395l.369-2.338h3.383v-.936H9.809l-.662 4.527.712.074h.121l.051-.098a1.953 1.953 0 0 1 1.495-.689c.563 0 1.08.223 1.298.467.269.246.515.738.515 1.305 0 1.205-.759 1.871-1.666 1.871-1.275 0-1.667-.814-1.693-1.355l-.048-.195H8.927v.219z"/><path fill="#fff" d="M60.514 117.342l1.298-3.569 1.375 3.569h-2.673z"/>
</symbol>
<symbol id="icon-flag" viewBox="0 0 32 32">
<title>flag</title>
<path d="M21.64 9.812c-0.016-0.568-0.612-0.866-1.172-0.76-0.34 0.064-0.774 0.112-1.046-0.042-0.598-0.34-1.214-0.734-1.656-1.25-1.676-1.956-2.792-1.754-5.032-1.1-0.2 0.060-0.446 0.438-0.436 0.658 0.054 1.214 0.182 2.424 0.286 3.636 0.020 0.368 0.056 0.74 0.056 1.108 0 1.426-0.008 2.85-0.022 4.274-0.018 1.958-0.044 8.964-0.068 10.926 0.050 0.078 0.088 0.168 0.154 0.226 0.158 0.138 0.326 0.26 0.492 0.388 0.132-0.188 0.298-0.36 0.382-0.566 0.082-0.202 0.076-0.44 0.11-0.664-0.004-2.67-0.006-10.386-0.010-13.054 0.66-0.4 1.358-0.776 2.112-0.352 0.88 0.492 1.726 1.052 2.542 1.644 0.726 0.524 2.334 0.586 3.010 0.008 0.156-0.134 0.3-0.382 0.304-0.578 0.024-1.5 0.036-3-0.004-4.5z"></path>
<path d="M12.85 5.924c0.532-0.070 0.82-0.398 0.824-0.802-0.010-0.658-0.38-1.004-0.902-0.996-0.478 0.008-0.902 0.432-0.888 0.89 0.014 0.482 0.504 0.97 0.968 0.908z"></path>
</symbol>
<symbol id="icon-footer" viewBox="0 0 32 32">
<title>footer</title>
<path fill="#9b9b9b" style="fill: var(--color1, #9b9b9b)" d="M21.47 9.745c-0.017-0.572-0.695-0.875-1.331-0.768-0.386 0.066-0.881 0.115-1.188-0.041-0.68-0.344-1.378-0.742-1.88-1.263-1.903-1.975-3.168-1.773-5.713-1.111-0.228 0.058-0.508 0.442-0.497 0.664 0.062 1.227 0.207 2.449 0.324 3.674 0.023 0.375 0.064 0.747 0.064 1.12 0 1.44-0.009 2.88-0.024 4.32-0.021 1.98-0.049 9.060-0.075 11.040 0.056 0.077 0.1 0.169 0.175 0.228 0.179 0.137 0.373 0.264 0.559 0.392 0.147-0.188 0.339-0.363 0.433-0.57s0.087-0.446 0.126-0.67c-0.006-2.697-0.008-10.498-0.011-13.193 0.749-0.405 1.542-0.783 2.398-0.358 0.998 0.499 1.96 1.064 2.888 1.66 0.824 0.529 2.647 0.595 3.416 0.009 0.177-0.136 0.343-0.386 0.346-0.585 0.026-1.517 0.038-3.032-0.006-4.55-0.004 0-0.004 0.002-0.004 0.002z"></path>
<path fill="#9b9b9b" style="fill: var(--color1, #9b9b9b)" d="M11.49 5.815c0.604-0.070 0.932-0.401 0.936-0.811-0.011-0.663-0.431-1.015-1.024-1.007-0.544 0.009-1.026 0.437-1.009 0.902 0.017 0.489 0.57 0.983 1.097 0.917v0 0z"></path>
<path fill="#fff" style="fill: var(--color2, #fff)" d="M3.923 11.96c-0.297 0.367-0.745 0.546-1.227 0.546-1.071 0-1.871-0.86-1.871-1.926s0.8-1.926 1.871-1.926c0.612 0 1.097 0.277 1.438 0.693l-0.422 0.422c-0.228-0.329-0.557-0.54-1.016-0.54-0.736 0-1.254 0.595-1.254 1.352s0.52 1.352 1.254 1.352c0.661 0 1.114-0.427 1.227-1.082h-1.25v-0.572h1.811v2.195h-0.561v-0.512z"></path>
<path fill="#fff" style="fill: var(--color2, #fff)" d="M6.244 8.687c0.6 0 1.086 0.39 1.086 1.082 0 0.606-0.395 0.968-0.86 1.060l0.86 1.643h-0.691l-0.811-1.621h-0.087v1.623h-0.606v-3.787h1.109zM5.741 10.278h0.508c0.324 0 0.488-0.216 0.488-0.508s-0.162-0.508-0.488-0.508h-0.508v1.016z"></path>
<path fill="#fff" style="fill: var(--color2, #fff)" d="M7.889 8.687h2.374v0.574h-1.768v1.016h0.86v0.572h-0.86v1.048h1.801v0.574h-2.408v-3.785z"></path>
<path fill="#fff" style="fill: var(--color2, #fff)" d="M10.822 8.687h2.374v0.574h-1.768v1.016h0.86v0.572h-0.86v1.048h1.801v0.574h-2.408v-3.785z"></path>
<path fill="#fff" style="fill: var(--color2, #fff)" d="M13.754 8.687h0.67l1.218 2.607v-2.607h0.606v3.785h-0.67l-1.218-2.605v2.607h-0.606v-3.787z"></path>
<path fill="#fff" style="fill: var(--color2, #fff)" d="M18.754 8.687l0.384 1.152 0.384-1.152h0.606l-0.693 2.012 0.329 0.964 1.071-2.974h0.638l-1.406 3.785h-0.606l-0.324-0.936-0.326 0.934h-0.604l-1.406-3.785h0.638l1.071 2.974 0.329-0.962-0.693-2.012h0.606z"></path>
<path fill="#fff" style="fill: var(--color2, #fff)" d="M23.456 9.261h-0.574v2.639h0.574v0.574h-1.752v-0.574h0.574v-2.639h-0.574v-0.574h1.752v0.574z"></path>
<path fill="#fff" style="fill: var(--color2, #fff)" d="M25.619 11.932c0.736 0 1.256-0.574 1.256-1.352h0.616c0 1.065-0.8 1.926-1.871 1.926s-1.871-0.86-1.871-1.926 0.8-1.926 1.871-1.926c0.612 0 1.097 0.277 1.438 0.693l-0.422 0.422c-0.228-0.329-0.557-0.54-1.016-0.54-0.736 0-1.254 0.595-1.254 1.352s0.518 1.352 1.254 1.352z"></path>
<path fill="#fff" style="fill: var(--color2, #fff)" d="M28.595 8.687v1.591h1.282v-1.591h0.606v3.785h-0.606v-1.621h-1.282v1.623h-0.604v-3.787h0.604z"></path>
<path fill="#fff" style="fill: var(--color2, #fff)" d="M6.948 17.344c0.736 0 1.256-0.574 1.256-1.352h0.616c0 1.065-0.8 1.926-1.871 1.926s-1.871-0.86-1.871-1.926 0.8-1.926 1.871-1.926c0.612 0 1.097 0.277 1.438 0.693l-0.422 0.42c-0.228-0.329-0.557-0.54-1.016-0.54-0.736 0-1.254 0.595-1.254 1.352s0.518 1.353 1.254 1.353z"></path>
<path fill="#fff" style="fill: var(--color2, #fff)" d="M11.096 17.916c-1.071 0-1.871-0.86-1.871-1.926s0.8-1.926 1.871-1.926c1.071 0 1.871 0.86 1.871 1.926s-0.8 1.926-1.871 1.926zM11.096 14.639c-0.736 0-1.254 0.595-1.254 1.352s0.52 1.352 1.254 1.352c0.736 0 1.256-0.595 1.256-1.352s-0.52-1.352-1.256-1.352z"></path>
<path fill="#fff" style="fill: var(--color2, #fff)" d="M13.538 14.099h0.67l1.201 2.92 1.201-2.92h0.67v3.785h-0.606v-2.402l-0.994 2.402h-0.54l-0.996-2.402v2.402h-0.606v-3.785z"></path>
<path fill="#fff" style="fill: var(--color2, #fff)" d="M18.008 14.099h2.374v0.574h-1.769v1.016h0.86v0.572h-0.86v1.048h1.801v0.574h-2.406v-3.785z"></path>
<path fill="#fff" style="fill: var(--color2, #fff)" d="M22.048 14.099c1.082 0 1.865 0.725 1.865 1.892 0 1.169-0.783 1.892-1.865 1.892h-1.109v-3.784h1.109zM21.545 14.671v2.639h0.52c0.687 0 1.233-0.471 1.233-1.32s-0.546-1.32-1.233-1.32h-0.52z"></path>
<path fill="#fff" style="fill: var(--color2, #fff)" d="M24.625 14.099l0.698 1.547 0.698-1.547h0.638l-1.033 2.163v1.623h-0.606v-1.623l-1.033-2.163h0.638z"></path>
<path fill="#fff" style="fill: var(--color2, #fff)" d="M4.885 19.509h2.406v0.574h-1.801v1.016h0.924v0.574h-0.924v1.623h-0.604v-3.787z"></path>
<path fill="#fff" style="fill: var(--color2, #fff)" d="M7.827 19.509h2.374v0.574h-1.768v1.016h0.86v0.574h-0.86v1.048h1.801v0.574h-2.408v-3.787z"></path>
<path fill="#fff" style="fill: var(--color2, #fff)" d="M12.235 21.024c0.471 0.179 0.774 0.491 0.774 1.071 0 0.702-0.535 1.233-1.216 1.233-0.693 0-1.216-0.546-1.216-1.218h0.604c0 0.352 0.228 0.644 0.612 0.644s0.612-0.265 0.612-0.644c0-0.568-0.497-0.568-1.028-0.774-0.346-0.136-0.595-0.439-0.595-0.855 0-0.589 0.433-1.005 0.996-1.005 0.41 0 0.713 0.173 0.898 0.488l-0.405 0.405c-0.092-0.205-0.28-0.32-0.476-0.32-0.248 0-0.416 0.168-0.416 0.401-0.002 0.352 0.36 0.384 0.856 0.574z"></path>
<path fill="#fff" style="fill: var(--color2, #fff)" d="M13.097 19.509h2.325v0.574h-0.858v3.211h-0.606v-3.211h-0.86v-0.574z"></path>
<path fill="#fff" style="fill: var(--color2, #fff)" d="M17.566 20.083h-0.574v2.639h0.572v0.574h-1.751v-0.574h0.572v-2.639h-0.572v-0.574h1.752v0.574z"></path>
<path fill="#fff" style="fill: var(--color2, #fff)" d="M17.875 19.509h0.638l1.071 2.957 1.071-2.957h0.638l-1.406 3.785h-0.606l-1.406-3.785z"></path>
<path fill="#fff" style="fill: var(--color2, #fff)" d="M23.548 23.294l-0.228-0.621h-1.687l-0.228 0.621h-0.632l1.4-3.785h0.606l1.4 3.785h-0.632zM21.835 22.099h1.288l-0.644-1.779-0.644 1.779z"></path>
<path fill="#fff" style="fill: var(--color2, #fff)" d="M24.595 19.509h0.606v3.211h1.801v0.574h-2.406v-3.785z"></path>
</symbol>
<symbol id="icon-grid" viewBox="0 0 32 32">
<title>grid</title>
<path d="M0 0v32h32v-32h-32zM30 10h-8v-8h8v8zM12 20v-8h8v8h-8zM20 22v8h-8v-8h8zM10 20h-8v-8h8v8zM12 10v-8h8v8h-8zM22 12h8v8h-8v-8zM10 2v8h-8v-8h8zM2 22h8v8h-8v-8zM22 30v-8h8v8h-8z"></path>
</symbol>
<symbol id="icon-icon-rev" viewBox="0 0 32 32">
<title>icon-rev</title>
<path d="M19.128 23.172c-0.146-0.154-0.316-0.292-0.436-0.466-0.268-0.386-0.514-0.79-0.768-1.184-0.63-1.132-1.17-2.304-1.516-3.558-0.056-0.208-0.152-0.402-0.228-0.604-0.062-0.246-0.118-0.49-0.19-0.732-0.018-0.062-0.086-0.11-0.132-0.164-0.046 0.048-0.11 0.092-0.136 0.15-0.18 0.402-0.35 0.806-0.528 1.21-0.040 0.092-0.096 0.174-0.144 0.26-0.164 0.38-0.326 0.76-0.496 1.138-0.238 0.524-0.462 1.058-0.73 1.566-0.246 0.466-0.546 0.906-0.824 1.356-0.148 0.468-0.434 0.836-0.81 1.14-0.050 0.062-0.1 0.126-0.15 0.188-0.016 0.014-0.032 0.028-0.048 0.042-0.014 0.002-0.026 0.006-0.038 0.014v-0.004c-0.21 0.268-0.42 0.536-0.63 0.804-0.090 0.11-0.18 0.22-0.262 0.324 3.238 0 6.484 0 9.814 0-0.21-0.148-0.36-0.254-0.508-0.356-0.518-0.26-0.836-0.736-1.24-1.124z"></path>
<path d="M24.528 24.296c-0.458-0.518-0.86-1.074-1.080-1.74l0.006 0.004c-0.014-0.016-0.024-0.034-0.038-0.050-0.31-0.664-0.626-1.324-0.926-1.992-0.184-0.408-0.358-0.822-0.516-1.24-0.222-0.596-0.426-1.2-0.638-1.8-0.016-0.060-0.034-0.12-0.050-0.182l0.004 0.006c-0.050-0.074-0.124-0.144-0.144-0.226-0.054-0.222-0.11-0.396-0.35-0.53s-0.43-0.074-0.646-0.026c-0.082 0.018-0.164 0.074-0.244 0.068-0.106-0.008-0.234-0.030-0.306-0.098-0.2-0.184-0.474-0.222-0.66-0.056-0.292 0.26-0.306 0.26-0.578-0.042-0.094-0.016-0.188-0.030-0.282-0.048-0.056 0.028-0.124 0.042-0.17 0.082-0.324 0.288-0.324 0.29-0.598-0.078-0.104 0.002-0.206 0.002-0.31 0.002-0.3 0.302-0.3 0.302-0.058 0.65 0.068 0.1 0.138 0.196 0.208 0.296 0.014 0.004 0.026 0.010 0.040 0.018l0.016 0.016c0.264 0.2 0.508 0.428 0.792 0.588 0.484 0.272 1.008 0.482 1.488 0.76 0.206 0.12 0.524 0.164 0.55 0.498-0.002 0.112 0 0.226-0.006 0.338-0.018 0.4-0.042 0.8-0.062 1.202 0.058 0.352 0.116 0.704 0.176 1.056 0.162 0.298 0.324 0.594 0.284 0.952 0.11 0.27 0.22 0.542 0.33 0.81 0.042 0.104 0.084 0.206 0.126 0.31 0.096 0.118 0.196 0.232 0.288 0.35 0.254 0.326 0.556 0.496 0.996 0.472 0.672-0.036 1.348-0.010 2.022-0.010 0.094 0 0.188 0.016 0.284 0.018 0.086 0.002 0.172-0.004 0.258-0.008-0.028-0.084-0.048-0.172-0.086-0.252-0.024-0.048-0.078-0.080-0.114-0.124z"></path>
<path d="M10.93 19.466c0.462-0.208 0.926-0.414 1.39-0.62 0.138-0.062 0.276-0.126 0.412-0.19 0.25-0.182 0.502-0.364 0.754-0.546 0.458-0.37 0.93-0.728 1.366-1.124 0.126-0.114 0.156-0.344 0.202-0.528 0.006-0.020-0.176-0.086-0.27-0.132-0.27 0.126-0.522 0.382-0.848 0.128-0.156 0.012-0.318 0.004-0.468 0.040-0.266 0.060-0.522 0.108-0.766-0.062-0.136 0.070-0.272 0.14-0.478 0.246-0.166-0.074-0.408-0.182-0.648-0.288-0.076 0.002-0.152 0.002-0.228 0.002-0.092 0.168-0.168 0.344-0.41 0.344-0.054 0-0.112 0.074-0.166 0.114-0.032 0.128-0.048 0.264-0.096 0.386-0.17 0.434-0.348 0.862-0.524 1.294-0.026 0.202-0.028 0.412-0.084 0.606-0.092 0.328-0.148 0.702-0.35 0.95-0.192 0.24-0.32 0.492-0.438 0.758-0.47 1.062-0.888 2.152-1.638 3.068-0.166 0.202-0.264 0.462-0.426 0.752 0.994 0 1.894 0 2.796 0 0.456 0 0.478-0.028 0.586-0.47 0.080-0.324 0.192-0.644 0.288-0.964 0.010-0.33 0.022-0.658 0.034-0.99-0.134-0.778-0.272-1.554-0.388-2.334-0.016-0.1 0.084-0.216 0.128-0.326 0.090-0.038 0.178-0.076 0.266-0.114z"></path>
<path d="M24.152 12.154c0.512 0.128 1.016 0.288 1.528 0.404 0.356 0.080 0.722 0.122 1.086 0.154 0.178 0.016 0.292-0.078 0.296-0.294 0.004-0.426 0.034-0.85 0.052-1.274 0.010-0.254 0.044-0.51 0.024-0.762-0.016-0.226-0.074-0.464-0.406-0.282-0.042 0.022-0.114 0.006-0.168-0.010-0.396-0.144-0.804-0.268-1.184-0.448-0.442-0.208-0.866-0.386-1.38-0.298-0.488 0.082-0.614 0.214-0.568 0.692 0.044 0.462 0.048 0.926 0.072 1.392 0.022 0.16 0.048 0.32 0.062 0.48 0.010 0.092 0.030 0.168 0.076 0.22s0.114 0.080 0.22 0.074c0.098-0.016 0.202-0.064 0.292-0.042z"></path>
<path d="M6.664 16.486c-0.28 0.268-0.504 0.126-0.754-0.006-0.158-0.004-0.294-0.004-0.452-0.008-0.158 0.076-0.314 0.152-0.448 0.214-0.122-0.036-0.238-0.070-0.358-0.104-0.028 0.122-0.16 0.132-0.168 0.254-0.012 0.228-0.174 0.582-0.178 0.81 0 0.018-0.002 0.038-0.002 0.056-0.016-0.002-0.032-0.002-0.048-0.004-0.026 0.126-0.064 0.252-0.076 0.378-0.036 0.358-0.016 0.728-0.1 1.074-0.29 1.184-0.536 2.376-0.666 3.59-0.060 0.542-0.184 1.076-0.266 1.618-0.016 0.098 0.040 0.204 0.060 0.298 0.338 0 0.634 0.008 0.928-0.004 0.078-0.004 0.152-0.066 0.23-0.1 0-0.528 0-1.058 0-1.586 0-0.278 0-0.556 0-0.836 0.256-0.464 0.616-1.142 0.652-1.172 0.406-0.706 0.802-1.418 1.218-2.118 0.392-0.658 0.818-1.298 1.020-2.048-0.068-0.254-0.424-0.464-0.59-0.306z"></path>
<path d="M28.796 24.438c-0.364-0.568-0.432-1.232-0.592-1.862-0.17-0.666-0.31-1.342-0.438-2.016-0.088-0.464-0.136-0.934-0.202-1.402-0.132-0.372-0.102-0.792-0.322-1.14-0.010 0.034-0.010 0.066-0.016 0.098-0.062-0.322-0.142-0.632-0.248-0.978-0.004-0.296-0.568-0.702-0.854-0.634-0.036 0.010-0.080 0.022-0.1 0.048-0.244 0.336-0.444 0.134-0.646-0.048-0.034-0.012-0.066-0.022-0.1-0.036-0.118-0.014-0.298-0.080-0.342-0.028-0.16 0.182-0.31 0.118-0.484 0.060-0.086-0.028-0.19-0.010-0.286-0.010 0.010 0.1-0.010 0.21 0.030 0.296 0.318 0.674 0.676 1.33 0.966 2.016 0.298 0.708 0.58 1.414 1.104 1.996 0.034 0.036 0.034 0.1 0.050 0.152l-0.004-0.004c0.022 0.032 0.042 0.064 0.062 0.096 0.684 0.684 0.772 2.116 0.856 2.802-0.028 0.082-0.068 0.164-0.092 0.244-0.008 0.104-0.016 0.208-0.024 0.312 0.030 0.034 0.088 0.066 0.088 0.1 0.006 0.25 0.15 0.298 0.368 0.304 0.43 0.010 0.862 0.072 1.284-0.064-0.016-0.1-0.008-0.22-0.060-0.298z"></path>
<path d="M15.632 11.498v0.004z"></path>
<path d="M15.632 11.5c-0.226-0.086-0.248 0.090-0.288 0.234-0.21 0.732-0.6 1.378-1.084 1.944-0.412 0.484-0.926 0.878-1.396 1.314-0.006 0.15 0.022 0.254 0.218 0.244 0.756-0.032 1.51-0.054 2.266-0.076 0.244-0.006 0.34-0.128 0.294-0.366 0.006-1.004 0.016-2.008 0.022-3.012 0-0.094-0.020-0.186-0.028-0.282z"></path>
<path d="M4.592 11.516c0 0.58-0.004 1.164-0.010 1.744-0.006 0.798-0.018 1.598-0.028 2.398 0.020 0.032 0.036 0.070 0.062 0.092 0.064 0.056 0.134 0.106 0.2 0.158 0.052-0.076 0.122-0.148 0.156-0.23s0.030-0.18 0.044-0.272c-0.002-1.090-0.004-2.178-0.004-3.266 0.27-0.164 0.554-0.316 0.862-0.144 0.358 0.202 0.704 0.43 1.036 0.67 0.296 0.214 0.952 0.24 1.226 0.004 0.064-0.054 0.122-0.154 0.124-0.236 0.010-0.612 0.014-1.224-0.002-1.836-0.006-0.23-0.25-0.354-0.478-0.31-0.14 0.026-0.316 0.046-0.426-0.016-0.244-0.138-0.496-0.3-0.674-0.51-0.684-0.798-1.138-0.716-2.052-0.448-0.084 0.026-0.182 0.18-0.18 0.27 0.022 0.494 0.074 0.99 0.116 1.484 0.008 0.15 0.022 0.302 0.022 0.452z"></path>
<path d="M3.94 18.198l-0.012 0.004 0.004 0.004z"></path>
<path d="M14.718 3.052c0.030 0.428 0.35 0.656 0.68 0.844 0.208 0.12 0.266 0.244 0.258 0.458-0.010 0.316-0.004 0.634-0.004 0.962 0.004 0 0.006 0 0.010 0-0.006 0.512 0.052 2.622 0.058 2.89 0.002 0.1 0.010 0.164 0.028 0.208-0.010 0.022-0.016 0.048-0.014 0.086 0.012 0.218-0.044 2.336-0.048 2.746 0.074 0.078 0.308 0.222 0.452-0.054 0.008-0.012 0.014-0.026 0.018-0.040 0.054 0.134 0.106 0.27 0.16 0.404 0.348 0.514 0.724 1.010 1.036 1.546 0.33 0.564 0.83 0.938 1.31 1.34 0.060 0.052 0.112 0.116 0.168 0.174 0.022 0.016 0.042 0.032 0.062 0.046 0.068 0.044 0.138 0.088 0.208 0.132 0.196 0.090 0.394 0.176 0.588 0.266 0.084 0.026 0.166 0.070 0.252 0.074 0.44 0.022 0.878 0.042 1.318 0.048 0.586 0.010 1.176 0.006 1.762 0.008 0.182 0.038 0.446-0.118 0.498 0.216 0.1-0.004 0.202-0.006 0.304-0.010 0.018-0.030 0.034-0.084 0.058-0.088 0.294-0.060 0.268-0.156 0.048-0.298-0.042-0.026-0.074-0.108-0.074-0.164-0.002-0.882 0.004-1.762 0.006-2.644-0.104 0.006-0.172-0.022-0.22-0.074s-0.068-0.128-0.076-0.22c-0.016-0.16-0.042-0.32-0.062-0.48 0 1.154 0 2.308 0 3.512-0.336-0.106-0.59-0.176-0.838-0.264-0.782-0.282-1.612-0.484-2.33-0.884-0.892-0.5-1.696-1.158-2.528-1.764-0.404-0.294-0.774-0.634-1.172-0.936-0.164-0.124-0.3-0.206-0.396-0.312-0.092-0.102-0.146-0.228-0.15-0.436-0.004-0.366 0.112-0.376 0.454-0.5 0.336-0.122 2.006-0.618 2.164-0.67 0.272-0.054 0.212-0.144 0.1-0.206-0.018-0.010-1.986-0.554-2.59-0.606 0.934-0.324 4.822-1.376 5.264-1.626 0.138-0.078 0.184-0.286-0.104-0.328-0.514-0.078-4.15-1.166-5.366-1.23 0-0.364 0-0.726 0-1.080 0.152-0.060 0.278-0.102 0.394-0.158 0.276-0.134 0.45-0.416 0.512-0.722 0.218-0.264 0.34-0.608 0.384-0.962 0.028-0.23-0.052-0.622-0.176-0.714-0.15-0.112-0.358-0.066-0.432 0.022-0.14 0.172-0.216 0.364-0.38 0.356-0.138-0.006-0.132-0.232-0.14-0.312-0.026-0.212-0.224-0.454-0.446-0.424-0.194 0.026-0.346 0.248-0.388 0.44-0.022 0.096-0.036 0.226-0.132 0.248-0.026 0.006-0.054 0-0.080-0.006-0.122-0.036-0.134-0.126-0.234-0.202s-0.23-0.142-0.352-0.104c-0.116 0.034-0.19 0.154-0.204 0.272s-0.034 0.282 0.010 0.468c0.074 0.302 0.19 0.536 0.368 0.758z"></path>
<path d="M15.164 11.086c-0.344 0.18-1.628 2.624-8.434 3.964-0.144 0.254 1.286 0.472 2.642 0.254 0.432-0.070 2.136-0.018 2.66-0.526s3.384-2.872 3.13-3.692z"></path>
<path d="M18.832 14.616h-0.002l-0.004-0.002z"></path>
</symbol>
<symbol id="icon-instagram" viewBox="0 0 32 32">
<title>instagram</title>
<path d="M16 2.882c4.274 0 4.782 0.018 6.462 0.094 1.562 0.068 2.406 0.332 2.968 0.55 0.744 0.288 1.282 0.638 1.838 1.194 0.562 0.562 0.906 1.094 1.2 1.838 0.218 0.562 0.482 1.412 0.55 2.968 0.074 1.688 0.094 2.194 0.094 6.462s-0.018 4.782-0.094 6.462c-0.068 1.562-0.332 2.406-0.55 2.968-0.288 0.744-0.638 1.282-1.194 1.838-0.562 0.562-1.094 0.906-1.838 1.2-0.562 0.218-1.412 0.482-2.968 0.55-1.688 0.074-2.194 0.094-6.462 0.094s-4.782-0.018-6.462-0.094c-1.562-0.068-2.406-0.332-2.968-0.55-0.744-0.288-1.282-0.638-1.838-1.194-0.562-0.562-0.906-1.094-1.2-1.838-0.218-0.562-0.482-1.412-0.55-2.968-0.076-1.688-0.094-2.194-0.094-6.462s0.018-4.782 0.094-6.462c0.068-1.562 0.332-2.406 0.55-2.968 0.288-0.744 0.638-1.282 1.194-1.838 0.562-0.562 1.094-0.906 1.838-1.2 0.562-0.218 1.412-0.482 2.968-0.55 1.682-0.076 2.188-0.094 6.462-0.094zM16 0c-4.344 0-4.888 0.018-6.594 0.094-1.7 0.076-2.868 0.35-3.882 0.744-1.056 0.412-1.95 0.956-2.838 1.85-0.894 0.888-1.438 1.782-1.85 2.832-0.394 1.018-0.668 2.182-0.744 3.882-0.074 1.712-0.094 2.256-0.094 6.6s0.018 4.888 0.094 6.594c0.076 1.7 0.35 2.868 0.744 3.882 0.412 1.056 0.956 1.95 1.85 2.838 0.888 0.888 1.782 1.438 2.832 1.844 1.018 0.394 2.182 0.668 3.882 0.744 1.706 0.074 2.25 0.094 6.594 0.094s4.888-0.018 6.594-0.094c1.7-0.074 2.868-0.35 3.882-0.744 1.050-0.406 1.944-0.956 2.832-1.844s1.438-1.782 1.844-2.832c0.394-1.018 0.668-2.182 0.744-3.882 0.074-1.706 0.094-2.25 0.094-6.594s-0.018-4.888-0.094-6.594c-0.074-1.7-0.35-2.868-0.744-3.882-0.394-1.062-0.938-1.956-1.832-2.844-0.888-0.888-1.782-1.438-2.832-1.844-1.018-0.394-2.182-0.668-3.882-0.744-1.712-0.082-2.256-0.1-6.6-0.1v0z"></path>
<path d="M16 7.782c-4.538 0-8.218 3.682-8.218 8.218s3.682 8.218 8.218 8.218 8.218-3.682 8.218-8.218c0-4.538-3.682-8.218-8.218-8.218zM16 21.332c-2.944 0-5.332-2.388-5.332-5.332s2.388-5.332 5.332-5.332c2.944 0 5.332 2.388 5.332 5.332s-2.388 5.332-5.332 5.332z"></path>
<path d="M26.462 7.456c0 1.060-0.86 1.918-1.918 1.918s-1.918-0.86-1.918-1.918c0-1.060 0.86-1.918 1.918-1.918s1.918 0.86 1.918 1.918z"></path>
</symbol>
<symbol id="icon-loreal" viewBox="0 0 192.756 192.756">
<title>loreal</title>
<g fill-rule="evenodd" clip-rule="evenodd"><path fill="#000" d="M0 0h192.756v192.756H0V0z"/><path d="M27.68 107.013v3.973H2.834V83.663h4.473v23.35H27.68zM24.202 93.599l4.968-9.44h-4.72l-3.727 9.44h3.479zM64.823 88.148c-1.611-2.535-3.964-4.666-6.735-6.118-2.771-1.453-5.96-2.227-9.148-2.227s-6.378.774-9.148 2.227c-2.771 1.452-5.125 3.583-6.736 6.118-1.611 2.534-2.481 5.473-2.481 8.412 0 2.938.87 5.877 2.481 8.411 1.611 2.535 3.964 4.666 6.736 6.118 2.771 1.453 5.96 2.227 9.148 2.227s6.377-.773 9.148-2.227c2.771-1.452 5.124-3.583 6.735-6.118 1.612-2.534 2.481-5.474 2.481-8.411 0-2.938-.869-5.877-2.481-8.412zm-3.866 15.103c-1.202 1.988-2.961 3.665-5.037 4.81-2.076 1.144-4.468 1.754-6.861 1.754s-4.785-.61-6.861-1.754c-2.075-1.145-3.834-2.821-5.037-4.81s-1.849-4.289-1.849-6.589c0-2.301.646-4.601 1.849-6.589s2.961-3.665 5.037-4.809c2.076-1.145 4.469-1.755 6.861-1.755s4.785.61 6.861 1.755c2.076 1.144 3.834 2.82 5.037 4.809a12.8 12.8 0 0 1 1.85 6.589 12.807 12.807 0 0 1-1.85 6.589zM98.494 95.446c-.809 1.78-2.339 2.809-3.536 3.431-1.197.623-2.06.839-2.929.808l8.696 11.302h-4.969l-8.41-10.929h-10.97v10.929h-4.472V83.663h17.888c1.808 0 3.642.356 5.26 1.266 1.618.91 3.018 2.293 3.676 4.25.657 1.956.573 4.487-.234 6.267zm-5.003-.187c.942-.796 1.5-2.105 1.451-3.403-.048-1.299-.703-2.585-1.638-3.37-.936-.784-2.132-.849-3.263-.849H76.376v8.446h13.665c1.208 0 2.508-.027 3.45-.824zM124.328 95.338v3.725h-15.156v7.95h20.373v3.973h-24.846V83.663h24.846v3.974h-20.373v7.701h15.156zM124.576 79.439h-6.709l-2.732 3.478 9.441-3.478zM138.305 104.031l-3.543 6.955h-4.471l13.912-27.324h4.473l13.914 27.324h-4.473l-3.541-6.955h-16.271zm8.134-15.977l-6.365 12.5h12.73l-6.365-12.5zM189.67 107.013v3.973h-24.844V83.663h4.471v23.35h20.373zM187.734 89.146l-.039-.652c-.006-.12.004-.24-.045-.376a1.19 1.19 0 0 0-.221-.382.43.43 0 0 0-.275-.155.87.87 0 0 0 .461-.376c.117-.187.189-.434.186-.699s-.084-.549-.225-.759c-.305-.447-.842-.523-1.312-.501h-1.979v4.565h.768v-1.875h1.148c.125 0 .334-.017.543.146.277.327.154.757.203 1.122.004.218.025.424.115.607h.863v-.141c-.157-.065-.171-.293-.191-.524zm-.949-2.011c-.238.152-.484.153-.654.15h-1.084v-1.39c.473.006.949-.02 1.418.018a.635.635 0 0 1 .506.36c.099.302.103.626-.186.862z"/><path d="M189.404 85.587c-.336-.582-.828-1.074-1.41-1.41s-1.254-.516-1.926-.516-1.344.18-1.926.516-1.074.828-1.41 1.41c-.336.582-.518 1.254-.518 1.926s.182 1.344.518 1.925.828 1.074 1.41 1.41 1.254.516 1.926.516 1.344-.18 1.926-.516 1.074-.828 1.41-1.41.518-1.253.518-1.925-.182-1.344-.518-1.926zm-.461 3.601a3.305 3.305 0 0 1-1.199 1.196 3.298 3.298 0 0 1-1.637.438 3.282 3.282 0 0 1-2.836-1.634 3.27 3.27 0 0 1 0-3.268 3.275 3.275 0 0 1 4.473-1.196c.494.285.912.702 1.199 1.196a3.29 3.29 0 0 1 .438 1.634c0 .57-.152 1.14-.438 1.634z"/></g>
</symbol>
<symbol id="icon-moroccanoil" viewBox="0 0 841.9 595.3">
<title>moroccanoil</title>
<g>
	<polygon class="st0" points="213.5,491.8 251.8,491.8 290.4,216.5 432.2,491.8 442.7,491.8 582.6,218.4 621.9,491.8 660.9,491.8
		604,108.8 597.5,108.8 438.1,423.2 275.9,108.8 269.7,108.8 	"/>
	<g>
		<path class="st1" d="M110.3,291.9h10.3l12.8,38.6l12.9-38.6h10.2l9.3,55.3h-10.2l-5.9-34.9L138,347.2h-9.3L117,312.3l-6.1,34.9
			h-10.3L110.3,291.9z"/>
		<path class="st1" d="M207.2,290.6c7.8,0,14.5,2.8,20.2,8.5c5.6,5.7,8.4,12.6,8.4,20.7c0,8.1-2.8,14.9-8.3,20.5
			c-5.6,5.6-12.3,8.4-20.2,8.4c-8.3,0-15.2-2.9-20.7-8.6c-5.5-5.7-8.2-12.6-8.2-20.4c0-5.3,1.3-10.1,3.8-14.6
			c2.6-4.4,6.1-7.9,10.5-10.5C197.2,291.9,202.1,290.6,207.2,290.6z M207.1,300.9c-5.1,0-9.4,1.8-12.9,5.3
			c-3.5,3.6-5.2,8.1-5.2,13.6c0,6.1,2.2,10.9,6.6,14.5c3.4,2.8,7.3,4.2,11.7,4.2c5,0,9.2-1.8,12.8-5.4c3.5-3.6,5.3-8.1,5.3-13.3
			c0-5.3-1.8-9.7-5.3-13.4C216.5,302.7,212.2,300.9,207.1,300.9z"/>
		<path class="st1" d="M253.4,291.9h11.1c6.1,0,10.5,0.5,13,1.6c2.6,1.1,4.7,2.9,6.3,5.4c1.6,2.5,2.4,5.5,2.4,9
			c0,3.6-0.9,6.7-2.6,9.1c-1.7,2.4-4.4,4.3-7.9,5.5l13.1,24.6h-11.5l-12.4-23.4h-1v23.4h-10.5V291.9z M263.9,313.6h3.3
			c3.3,0,5.7-0.4,6.9-1.3c1.3-0.9,1.9-2.3,1.9-4.4c0-1.2-0.3-2.3-0.9-3.1c-0.6-0.9-1.5-1.5-2.5-1.9c-1-0.4-3-0.6-5.8-0.6h-2.9V313.6
			z"/>
		<path class="st1" d="M330.4,290.6c7.8,0,14.5,2.8,20.2,8.5c5.6,5.7,8.4,12.6,8.4,20.7c0,8.1-2.8,14.9-8.3,20.5
			c-5.6,5.6-12.3,8.4-20.2,8.4c-8.3,0-15.2-2.9-20.7-8.6c-5.5-5.7-8.2-12.6-8.2-20.4c0-5.3,1.3-10.1,3.8-14.6
			c2.6-4.4,6.1-7.9,10.5-10.5C320.4,291.9,325.2,290.6,330.4,290.6z M330.3,300.9c-5.1,0-9.4,1.8-12.9,5.3
			c-3.5,3.6-5.2,8.1-5.2,13.6c0,6.1,2.2,10.9,6.6,14.5c3.4,2.8,7.3,4.2,11.7,4.2c5,0,9.2-1.8,12.8-5.4c3.5-3.6,5.3-8.1,5.3-13.3
			c0-5.3-1.8-9.7-5.3-13.4C339.6,302.7,335.3,300.9,330.3,300.9z"/>
		<path class="st1" d="M426.6,301.7l-7.4,7c-5-5.3-10.6-7.9-16.9-7.9c-5.3,0-9.7,1.8-13.3,5.4c-3.6,3.6-5.4,8.1-5.4,13.4
			c0,3.7,0.8,7,2.4,9.8c1.6,2.9,3.9,5.1,6.8,6.7c2.9,1.6,6.2,2.4,9.8,2.4c3.1,0,5.8-0.6,8.4-1.7c2.5-1.1,5.3-3.2,8.3-6.2l7.1,7.4
			c-4.1,4-7.9,6.8-11.6,8.3c-3.6,1.5-7.8,2.3-12.4,2.3c-8.6,0-15.6-2.7-21.1-8.2c-5.5-5.5-8.2-12.4-8.2-21c0-5.5,1.2-10.4,3.7-14.7
			c2.5-4.3,6.1-7.7,10.7-10.3c4.6-2.6,9.7-3.9,15-3.9c4.6,0,9,1,13.2,2.9C419.9,295.4,423.6,298.1,426.6,301.7z"/>
		<path class="st1" d="M493.6,301.7l-7.4,7c-5-5.3-10.6-7.9-16.9-7.9c-5.3,0-9.7,1.8-13.3,5.4c-3.6,3.6-5.4,8.1-5.4,13.4
			c0,3.7,0.8,7,2.4,9.8c1.6,2.9,3.9,5.1,6.8,6.7c2.9,1.6,6.2,2.4,9.8,2.4c3.1,0,5.8-0.6,8.4-1.7c2.5-1.1,5.3-3.2,8.3-6.2l7.1,7.4
			c-4.1,4-7.9,6.8-11.6,8.3c-3.6,1.5-7.8,2.3-12.4,2.3c-8.6,0-15.6-2.7-21.1-8.2c-5.5-5.5-8.2-12.4-8.2-21c0-5.5,1.2-10.4,3.7-14.7
			c2.5-4.3,6.1-7.7,10.7-10.3c4.6-2.6,9.7-3.9,15-3.9c4.6,0,9,1,13.2,2.9C486.9,295.4,490.5,298.1,493.6,301.7z"/>
		<path class="st1" d="M526.6,291.9h10.7l21.3,55.3h-10.9l-4.3-11.4h-22.6l-4.5,11.4h-10.9L526.6,291.9z M532,306.6l-7.4,19h14.8
			L532,306.6z"/>
		<path class="st1" d="M573.6,291.9h10.1l23.7,36.4v-36.4h10.5v55.3h-10.1L584.2,311v36.3h-10.5V291.9z"/>
		<path class="st1" d="M663.6,290.6c7.8,0,14.5,2.8,20.2,8.5c5.6,5.7,8.4,12.6,8.4,20.7c0,8.1-2.8,14.9-8.3,20.5
			c-5.6,5.6-12.3,8.4-20.2,8.4c-8.3,0-15.2-2.9-20.7-8.6c-5.5-5.7-8.2-12.6-8.2-20.4c0-5.3,1.3-10.1,3.8-14.6
			c2.6-4.4,6.1-7.9,10.5-10.5C653.6,291.9,658.4,290.6,663.6,290.6z M663.4,300.9c-5.1,0-9.4,1.8-12.9,5.3
			c-3.5,3.6-5.2,8.1-5.2,13.6c0,6.1,2.2,10.9,6.6,14.5c3.4,2.8,7.3,4.2,11.7,4.2c5,0,9.2-1.8,12.8-5.4c3.5-3.6,5.3-8.1,5.3-13.3
			c0-5.3-1.8-9.7-5.3-13.4C672.8,302.7,668.5,300.9,663.4,300.9z"/>
		<path class="st1" d="M708.3,291.9h10.4v55.3h-10.4V291.9z"/>
		<path class="st1" d="M737.5,291.9H748v45.2h15.3v10h-25.9V291.9z"/>
	</g>
</g>
</symbol>
<symbol id="icon-royal-greenwich" viewBox="0 0 32 32">
<title>royal-greenwich</title>
<path d="M26.797 12.287c-0.259-0.747-0.693-0.835-0.917-0.828 0.033-0.046 0.067-0.103 0.079-0.163 0.026-0.128-0.023-0.273-0.024-0.278-0.005-0.019-0.021-0.033-0.042-0.033 0 0-0.011-0.002-0.024-0.002-0.058 0-0.168 0.007-0.245 0.053-0.049 0.028-0.105 0.091-0.149 0.149-0.016-0.095-0.058-0.22-0.161-0.336-0.177-0.198-0.473-0.297-0.886-0.297-0.39 0.002-0.683 0.098-0.872 0.29-0.114 0.119-0.165 0.245-0.187 0.339-0.033-0.046-0.077-0.091-0.13-0.117-0.107-0.058-0.245-0.061-0.275-0.061-0.019 0-0.037 0.012-0.044 0.030-0.003 0.009-0.063 0.159-0.030 0.275 0.012 0.051 0.049 0.11 0.081 0.161-0.2-0.016-0.634 0.039-0.88 0.749-0.14 0.402-0.143 0.732-0.014 0.976 0.068 0.13 0.166 0.212 0.247 0.261-0.054 0.016-0.108 0.042-0.152 0.079-0.102 0.088-0.152 0.231-0.156 0.236-0.007 0.018 0 0.040 0.014 0.054 0.007 0.004 0.137 0.11 0.257 0.121 0.054 0.004 0.131-0.011 0.191-0.023-0.072 0.201-0.152 0.675 0.448 1.071 0.31 0.205 0.59 0.31 0.826 0.31 0.217 0 0.357-0.088 0.438-0.165 0.003 0.053 0.012 0.108 0.035 0.156 0.058 0.119 0.182 0.207 0.187 0.212 0.009 0.005 0.017 0.009 0.028 0.009 0.009 0 0.019-0.004 0.026-0.009 0.007-0.004 0.138-0.093 0.187-0.2 0.019-0.047 0.026-0.108 0.030-0.166 0.086 0.082 0.235 0.178 0.457 0.178 0.219 0 0.46-0.095 0.724-0.278 0.336-0.235 0.529-0.488 0.574-0.756 0.024-0.147-0.002-0.271-0.033-0.352 0.046 0.014 0.098 0.024 0.149 0.024 0.012 0 0.026 0 0.038-0.004 0.131-0.016 0.256-0.107 0.261-0.11 0.017-0.012 0.023-0.031 0.019-0.051-0.002-0.007-0.046-0.161-0.135-0.24-0.047-0.040-0.126-0.072-0.189-0.091 0.159-0.142 0.48-0.513 0.248-1.174v0zM26.417 13.435c-0.017 0.009-0.026 0.030-0.023 0.049 0.002 0.019 0.017 0.035 0.035 0.039 0.051 0.012 0.189 0.053 0.243 0.1 0.046 0.039 0.077 0.112 0.095 0.161-0.038 0.023-0.114 0.063-0.187 0.073-0.107 0.012-0.25-0.059-0.252-0.059-0.019-0.011-0.044-0.005-0.058 0.012-0.016 0.018-0.017 0.040-0.003 0.058 0.002 0.002 0.116 0.165 0.075 0.402-0.042 0.24-0.222 0.471-0.534 0.69-0.245 0.173-0.471 0.261-0.669 0.261-0.322 0-0.462-0.235-0.467-0.242-0.011-0.019-0.033-0.030-0.054-0.023-0.023 0.007-0.037 0.028-0.035 0.051 0.005 0.051 0.011 0.193-0.019 0.261-0.023 0.054-0.084 0.107-0.122 0.138-0.037-0.030-0.098-0.088-0.13-0.152-0.037-0.079-0.026-0.212-0.019-0.257 0.005-0.021-0.009-0.042-0.026-0.051-0.005-0.005-0.012-0.005-0.019-0.005-0.016 0-0.028 0.007-0.038 0.018-0.002 0.002-0.005 0.007-0.007 0.011-0.003 0.011-0.119 0.236-0.448 0.236-0.217 0-0.478-0.098-0.773-0.292-0.703-0.462-0.389-1.017-0.375-1.040 0.011-0.018 0.009-0.039-0.005-0.054-0.012-0.016-0.033-0.021-0.052-0.016-0.002 0.002-0.161 0.056-0.256 0.047-0.056-0.004-0.128-0.047-0.17-0.077 0.017-0.042 0.058-0.116 0.114-0.165 0.065-0.056 0.198-0.082 0.241-0.088 0.024-0.002 0.042-0.021 0.044-0.044s-0.014-0.044-0.035-0.051c-0.002-0.002-0.208-0.058-0.326-0.278-0.116-0.22-0.11-0.521 0.021-0.896 0.208-0.6 0.551-0.686 0.738-0.686 0.089 0 0.149 0.018 0.149 0.018 0.023 0.009 0.046 0 0.058-0.018s0.011-0.042-0.005-0.058c-0.032-0.037-0.121-0.15-0.138-0.224-0.016-0.054 0.002-0.135 0.014-0.184 0.049 0.004 0.131 0.014 0.198 0.049 0.077 0.040 0.142 0.156 0.161 0.196 0.011 0.019 0.033 0.031 0.056 0.026 0.021-0.005 0.037-0.024 0.037-0.047 0-0.004-0.005-0.226 0.178-0.413 0.168-0.173 0.438-0.262 0.808-0.262 0.376 0 0.646 0.089 0.803 0.264 0.168 0.185 0.147 0.409 0.147 0.411-0.003 0.021 0.011 0.044 0.032 0.051 0.021 0.009 0.044 0 0.056-0.019 0.046-0.073 0.14-0.201 0.198-0.236 0.054-0.030 0.14-0.037 0.182-0.037 0.011 0.044 0.024 0.128 0.011 0.2-0.016 0.084-0.107 0.18-0.14 0.21-0.017 0.014-0.021 0.039-0.011 0.058 0.012 0.019 0.035 0.030 0.056 0.023 0.003 0 0.614-0.185 0.936 0.747 0.271 0.779-0.266 1.101-0.289 1.115v0z"></path>
<path d="M4.114 16.549c0-0.515-0.376-0.831-0.982-0.831h-0.752v2.97h0.429v-1.288h0.18c0.219 0 0.397 0.068 0.793 0.679l0.394 0.607h0.513c-0.205-0.282-0.278-0.381-0.406-0.586-0.229-0.371-0.396-0.644-0.667-0.824 0.32-0.124 0.499-0.381 0.499-0.726zM3.085 17.016h-0.276v-0.931h0.276c0.417 0 0.583 0.168 0.586 0.448 0.005 0.247-0.126 0.483-0.586 0.483z"></path>
<path d="M8.165 17.203c0-0.828-0.621-1.524-1.608-1.524-0.97 0-1.603 0.7-1.603 1.524 0 0.805 0.618 1.524 1.594 1.524 1.013 0 1.617-0.723 1.617-1.524zM5.395 17.203c0-0.653 0.495-1.132 1.162-1.132 0.672 0 1.167 0.48 1.167 1.132 0 0.648-0.495 1.132-1.167 1.132-0.665 0-1.162-0.483-1.162-1.132z"></path>
<path d="M9.451 18.689h0.429v-1.568l1.11-1.403h-0.516l-0.812 1.025-0.803-1.026h-0.516l1.11 1.4z"></path>
<path d="M12.121 15.702l-1.283 2.986h0.438l0.378-0.875h1.271l0.397 0.875h0.439l-1.337-2.986h-0.303zM11.82 17.429l0.446-1.076 0.483 1.076h-0.929z"></path>
<path d="M14.415 15.718v2.972h1.78v-0.385h-1.351v-2.587z"></path>
<path d="M3.987 21.479h0.574v0.609c-0.207 0.065-0.417 0.117-0.647 0.117-0.712 0-1.211-0.464-1.211-1.127 0-0.644 0.506-1.136 1.153-1.136 0.361 0 0.724 0.098 1.075 0.291v-0.43c-0.469-0.196-0.714-0.252-1.066-0.252-0.91 0-1.603 0.667-1.603 1.542 0 0.872 0.675 1.507 1.591 1.507 0.417 0 0.74-0.070 1.139-0.243v-1.26h-1.005v0.383z"></path>
<path d="M7.187 21.148c0.32-0.126 0.499-0.383 0.499-0.728 0-0.514-0.376-0.831-0.98-0.831h-0.754v2.97h0.429v-1.288h0.18c0.221 0 0.399 0.068 0.793 0.679l0.396 0.609h0.513c-0.207-0.282-0.28-0.383-0.408-0.588-0.229-0.369-0.396-0.644-0.667-0.823zM6.657 20.886h-0.277v-0.931h0.277c0.417 0 0.583 0.17 0.588 0.45 0.003 0.247-0.128 0.481-0.588 0.481z"></path>
<path d="M8.919 19.59v2.97h1.736v-0.385h-1.307v-0.922h1.223v-0.383h-1.223v-0.896h1.267v-0.383z"></path>
<path d="M11.44 19.59v2.97h1.736v-0.385h-1.307v-0.922h1.225v-0.383h-1.225v-0.896h1.267v-0.383z"></path>
<path d="M16.323 19.59v2.298l-2.025-2.298h-0.341v2.97h0.402v-2.287l1.999 2.287h0.367v-2.97z"></path>
<path d="M21.522 19.59l-0.816 2.046-0.833-2.046h-0.408l-0.828 2.046-0.826-2.046h-0.429l1.209 2.996h0.084l0.992-2.429 0.98 2.429h0.082l1.216-2.996z"></path>
<path d="M22.613 22.56h0.43v-2.97h-0.43z"></path>
<path d="M24.359 21.078c0-0.653 0.508-1.136 1.194-1.136 0.346 0 0.66 0.095 1.029 0.308v-0.455c-0.408-0.17-0.719-0.245-1.026-0.245-0.952 0-1.642 0.663-1.642 1.568 0 0.623 0.492 1.48 1.615 1.48 0.467 0 0.788-0.108 1.081-0.262v-0.464c-0.338 0.217-0.705 0.336-1.043 0.336-0.719-0.002-1.209-0.464-1.209-1.131z"></path>
<path d="M29.57 19.59v1.293h-1.673v-1.293h-0.43v2.97h0.43v-1.293h1.673v1.293h0.429v-2.97z"></path>
<path d="M17.802 16.864l-0.308 1.34c0.019 0.032 0.042 0.059 0.067 0.087 0.024 0.024 0.056 0.047 0.091 0.068 0.038 0.019 0.082 0.037 0.135 0.047 0.051 0.012 0.112 0.017 0.18 0.017 0.091 0 0.175-0.019 0.257-0.061 0.082-0.040 0.154-0.096 0.219-0.166 0.059-0.070 0.112-0.152 0.151-0.248 0.037-0.095 0.056-0.198 0.056-0.301 0-0.138-0.033-0.248-0.105-0.331-0.068-0.081-0.163-0.122-0.284-0.122-0.051 0-0.105 0.012-0.159 0.037-0.056 0.024-0.116 0.067-0.189 0.13h-0.005l0.18-0.786-0.011-0.017-0.441 0.024-0.017 0.072c0.026 0.003 0.052 0.005 0.077 0.009 0.026 0.002 0.047 0.007 0.063 0.014 0.019 0.009 0.032 0.019 0.042 0.035 0.009 0.016 0.014 0.038 0.014 0.067 0 0.012-0.002 0.026-0.003 0.040-0.002 0.012-0.005 0.026-0.009 0.046zM17.881 17.48c0.017-0.016 0.037-0.033 0.059-0.054 0.023-0.019 0.046-0.037 0.068-0.051 0.026-0.016 0.052-0.028 0.075-0.038 0.024-0.011 0.052-0.014 0.079-0.014 0.049 0 0.087 0.009 0.119 0.024 0.032 0.017 0.054 0.042 0.073 0.070 0.019 0.030 0.030 0.065 0.040 0.108 0.005 0.042 0.009 0.082 0.009 0.126 0 0.087-0.009 0.172-0.030 0.257-0.021 0.084-0.054 0.159-0.098 0.227-0.038 0.061-0.087 0.11-0.143 0.149-0.054 0.037-0.114 0.052-0.175 0.052-0.035 0-0.065-0.003-0.093-0.012-0.026-0.011-0.052-0.023-0.075-0.042-0.019-0.016-0.033-0.032-0.046-0.051s-0.019-0.035-0.023-0.052l0.159-0.7z"></path>
<path d="M19.228 17.257c-0.087 0.042-0.161 0.098-0.221 0.165-0.059 0.070-0.105 0.151-0.14 0.241-0.037 0.089-0.052 0.187-0.052 0.292 0 0.142 0.040 0.257 0.122 0.341 0.082 0.086 0.189 0.128 0.32 0.128 0.114 0 0.213-0.021 0.299-0.067 0.087-0.044 0.161-0.1 0.221-0.173 0.061-0.070 0.105-0.152 0.138-0.245 0.032-0.093 0.049-0.187 0.049-0.28 0-0.138-0.040-0.25-0.121-0.336s-0.191-0.128-0.331-0.128c-0.103-0.002-0.196 0.019-0.285 0.061zM19.66 17.362c0.040 0.056 0.061 0.14 0.061 0.252 0 0.091-0.009 0.177-0.028 0.264-0.017 0.086-0.044 0.161-0.079 0.227-0.033 0.068-0.079 0.126-0.133 0.168-0.054 0.044-0.117 0.065-0.187 0.065-0.079 0-0.138-0.028-0.177-0.086s-0.059-0.143-0.059-0.257c0-0.070 0.009-0.149 0.021-0.233 0.017-0.084 0.040-0.161 0.072-0.229 0.042-0.091 0.093-0.156 0.151-0.196s0.121-0.061 0.186-0.061c0.075 0.002 0.133 0.030 0.173 0.086z"></path>
<path d="M20.896 17.489c0 0.026 0.012 0.051 0.032 0.070 0.021 0.021 0.054 0.033 0.096 0.033 0.032 0 0.054-0.007 0.073-0.017 0.017-0.012 0.032-0.028 0.046-0.051 0.012-0.017 0.023-0.038 0.026-0.065 0.007-0.026 0.012-0.051 0.012-0.073 0-0.040-0.003-0.072-0.012-0.093-0.011-0.021-0.023-0.040-0.040-0.058-0.016-0.016-0.035-0.024-0.059-0.032-0.024-0.005-0.047-0.011-0.073-0.011-0.054 0-0.105 0.017-0.154 0.051-0.049 0.032-0.121 0.089-0.213 0.17h-0.007c0-0.068-0.014-0.119-0.040-0.156-0.026-0.033-0.072-0.051-0.137-0.051-0.035 0-0.075 0.007-0.124 0.019-0.047 0.016-0.102 0.035-0.165 0.061l-0.019 0.077c0.017-0.005 0.037-0.011 0.063-0.016 0.028-0.005 0.051-0.009 0.068-0.009 0.046 0 0.073 0.007 0.091 0.021 0.014 0.016 0.023 0.046 0.023 0.091 0 0.017-0.005 0.046-0.014 0.084-0.007 0.037-0.012 0.065-0.016 0.086l-0.175 0.767h0.224l0.191-0.849c0.046-0.049 0.087-0.089 0.126-0.119 0.040-0.032 0.073-0.054 0.105-0.068 0.030-0.016 0.056-0.024 0.079-0.030s0.037-0.009 0.049-0.009c-0.016 0.030-0.026 0.059-0.040 0.091-0.009 0.032-0.014 0.059-0.014 0.084z"></path>
<path d="M21.948 17.194c-0.102 0-0.198 0.021-0.284 0.063-0.089 0.044-0.163 0.098-0.221 0.166-0.059 0.070-0.107 0.149-0.142 0.24s-0.052 0.189-0.052 0.294c0 0.143 0.042 0.256 0.124 0.341 0.082 0.084 0.187 0.126 0.32 0.126 0.114 0 0.213-0.021 0.299-0.067 0.087-0.042 0.159-0.102 0.221-0.173 0.059-0.072 0.107-0.152 0.138-0.245 0.032-0.095 0.047-0.187 0.047-0.28 0-0.138-0.038-0.25-0.121-0.336-0.079-0.086-0.189-0.13-0.331-0.13zM22.13 17.878c-0.019 0.084-0.046 0.161-0.079 0.227-0.035 0.068-0.079 0.124-0.135 0.168-0.054 0.046-0.117 0.065-0.186 0.065-0.082 0-0.14-0.026-0.178-0.086-0.040-0.058-0.059-0.143-0.059-0.257 0-0.070 0.009-0.149 0.023-0.233 0.016-0.084 0.038-0.161 0.072-0.229 0.042-0.091 0.091-0.156 0.151-0.198 0.056-0.038 0.121-0.059 0.186-0.059 0.075 0 0.131 0.028 0.173 0.086 0.040 0.056 0.059 0.14 0.059 0.252 0 0.091-0.009 0.178-0.026 0.264z"></path>
<path d="M23.69 18.274c-0.046 0-0.079-0.009-0.096-0.024-0.019-0.016-0.030-0.047-0.030-0.091 0-0.014 0.003-0.035 0.011-0.068s0.012-0.067 0.021-0.098l0.177-0.761-0.016-0.019-0.208 0.016-0.206 0.891c-0.054 0.054-0.108 0.093-0.159 0.121-0.056 0.026-0.107 0.040-0.159 0.040-0.051 0-0.086-0.016-0.108-0.046-0.023-0.032-0.035-0.073-0.035-0.128 0-0.014 0.003-0.037 0.009-0.065 0.005-0.030 0.011-0.059 0.019-0.093l0.105-0.438c0.007-0.024 0.011-0.049 0.014-0.073 0.005-0.024 0.005-0.044 0.005-0.056 0-0.056-0.016-0.098-0.044-0.128-0.032-0.030-0.077-0.046-0.14-0.046-0.028 0-0.068 0.009-0.116 0.023s-0.102 0.033-0.165 0.061l-0.016 0.077c0.014-0.005 0.035-0.011 0.061-0.017s0.049-0.009 0.067-0.009c0.046 0 0.073 0.009 0.091 0.021 0.014 0.016 0.021 0.046 0.021 0.089 0 0.024-0.002 0.051-0.009 0.077-0.005 0.026-0.012 0.056-0.019 0.093l-0.091 0.375c-0.014 0.051-0.019 0.089-0.023 0.116s-0.003 0.049-0.003 0.068c0 0.070 0.019 0.128 0.061 0.172s0.102 0.065 0.178 0.065c0.049 0 0.089-0.005 0.121-0.011 0.032-0.011 0.065-0.023 0.103-0.044 0.033-0.017 0.067-0.035 0.098-0.061 0.033-0.023 0.068-0.052 0.105-0.081h0.007c0 0.051 0.016 0.093 0.047 0.13s0.079 0.056 0.143 0.056c0.038 0 0.079-0.007 0.122-0.021 0.044-0.012 0.1-0.032 0.165-0.058l0.019-0.079c-0.017 0.007-0.037 0.012-0.067 0.017-0.026 0.005-0.047 0.007-0.061 0.007z"></path>
<path d="M23.956 18.858c0.024 0.016 0.058 0.028 0.098 0.038 0.042 0.012 0.096 0.016 0.163 0.016 0.096 0 0.184-0.012 0.261-0.037s0.147-0.065 0.21-0.124c0.059-0.058 0.117-0.133 0.165-0.231 0.046-0.098 0.086-0.217 0.116-0.359l0.201-0.933-0.016-0.017-0.217 0.056c-0.032-0.021-0.073-0.038-0.124-0.052-0.051-0.016-0.103-0.023-0.163-0.023-0.091 0-0.178 0.023-0.262 0.065-0.086 0.042-0.157 0.098-0.217 0.166-0.063 0.072-0.114 0.154-0.149 0.247-0.037 0.091-0.054 0.187-0.054 0.285 0 0.142 0.032 0.254 0.093 0.334 0.063 0.081 0.152 0.121 0.268 0.121 0.044 0 0.086-0.007 0.124-0.019 0.037-0.014 0.073-0.032 0.11-0.052 0.032-0.017 0.061-0.037 0.091-0.059 0.028-0.023 0.051-0.042 0.067-0.054l0.007 0.002c-0.019 0.121-0.049 0.221-0.086 0.297-0.037 0.075-0.075 0.137-0.119 0.184-0.040 0.044-0.086 0.075-0.137 0.095s-0.096 0.030-0.14 0.030h-0.037c-0.005-0.014-0.014-0.035-0.026-0.063-0.014-0.030-0.026-0.054-0.040-0.073s-0.030-0.038-0.051-0.054c-0.019-0.016-0.047-0.026-0.075-0.026-0.037 0-0.067 0.012-0.087 0.037-0.021 0.023-0.033 0.054-0.033 0.089 0 0.019 0.003 0.038 0.014 0.059 0.009 0.023 0.023 0.040 0.047 0.058zM24.595 18.234c-0.054 0.032-0.108 0.049-0.165 0.049-0.044 0-0.081-0.009-0.107-0.024-0.028-0.017-0.051-0.038-0.067-0.068s-0.028-0.063-0.035-0.103c-0.007-0.038-0.011-0.082-0.011-0.128 0-0.086 0.012-0.17 0.038-0.256 0.024-0.086 0.058-0.159 0.096-0.219 0.046-0.063 0.093-0.114 0.149-0.151 0.054-0.037 0.112-0.054 0.173-0.054 0.042 0 0.075 0.007 0.103 0.016 0.026 0.012 0.049 0.026 0.067 0.046 0.017 0.021 0.030 0.044 0.037 0.065 0.007 0.024 0.011 0.047 0.011 0.067l-0.135 0.64c-0.051 0.049-0.1 0.087-0.156 0.121z"></path>
<path d="M25.701 16.864l-0.355 1.524h0.222l0.203-0.868c0.052-0.058 0.108-0.105 0.166-0.137 0.059-0.032 0.112-0.049 0.165-0.049 0.049 0 0.084 0.016 0.11 0.047 0.026 0.030 0.038 0.072 0.038 0.126 0 0.016-0.003 0.038-0.007 0.067-0.005 0.026-0.012 0.058-0.021 0.091l-0.117 0.441c-0.007 0.028-0.014 0.052-0.016 0.073-0.003 0.019-0.005 0.040-0.005 0.058 0 0.047 0.017 0.089 0.049 0.121 0.030 0.033 0.079 0.051 0.143 0.051 0.040 0 0.079-0.007 0.121-0.021 0.038-0.012 0.093-0.032 0.165-0.061l0.019-0.075c-0.016 0.005-0.037 0.011-0.065 0.016-0.026 0.005-0.051 0.009-0.067 0.009-0.044 0-0.075-0.009-0.096-0.024-0.019-0.016-0.028-0.047-0.028-0.091 0-0.019 0.003-0.044 0.011-0.077 0.007-0.032 0.016-0.061 0.019-0.087l0.102-0.38c0.009-0.035 0.016-0.070 0.019-0.108 0.003-0.035 0.007-0.061 0.007-0.075 0-0.070-0.021-0.128-0.063-0.172-0.046-0.044-0.103-0.067-0.178-0.067-0.082 0-0.154 0.017-0.219 0.052-0.063 0.032-0.137 0.082-0.217 0.147h-0.005l0.192-0.819-0.016-0.017-0.443 0.026-0.017 0.072c0.026 0.002 0.054 0.003 0.081 0.007s0.047 0.009 0.063 0.016c0.017 0.007 0.030 0.019 0.040 0.035s0.014 0.037 0.014 0.065c0 0.016-0.002 0.028-0.003 0.040-0.002 0.011-0.007 0.026-0.011 0.046z"></path>
<path d="M28.064 18.359c0.086-0.044 0.161-0.102 0.222-0.175 0.058-0.068 0.105-0.151 0.137-0.245 0.032-0.091 0.047-0.186 0.047-0.278 0-0.138-0.038-0.25-0.121-0.336-0.079-0.087-0.189-0.13-0.329-0.13-0.105 0-0.2 0.021-0.285 0.063-0.089 0.044-0.163 0.098-0.221 0.166-0.059 0.068-0.107 0.149-0.142 0.24-0.033 0.091-0.052 0.189-0.052 0.294 0 0.142 0.042 0.256 0.124 0.34 0.082 0.086 0.189 0.128 0.32 0.128 0.114 0 0.213-0.023 0.299-0.067zM27.623 18.254c-0.040-0.058-0.058-0.143-0.058-0.256 0-0.072 0.007-0.149 0.021-0.233 0.016-0.086 0.038-0.163 0.072-0.229 0.042-0.091 0.091-0.157 0.151-0.198 0.058-0.040 0.121-0.061 0.186-0.061 0.077 0 0.133 0.028 0.173 0.086 0.038 0.056 0.058 0.138 0.058 0.252 0 0.091-0.007 0.177-0.026 0.264-0.017 0.084-0.046 0.163-0.077 0.226-0.035 0.070-0.079 0.126-0.135 0.17-0.054 0.044-0.117 0.067-0.187 0.067-0.079 0-0.137-0.030-0.177-0.087z"></path>
<path d="M29.363 16.6c-0.065 0.028-0.124 0.067-0.175 0.119-0.052 0.051-0.098 0.112-0.14 0.186s-0.072 0.157-0.091 0.248l-0.017 0.079h-0.231l-0.023 0.108h0.233l-0.221 1.022c-0.032 0.143-0.068 0.254-0.114 0.331-0.042 0.077-0.095 0.117-0.156 0.122-0.011-0.016-0.023-0.035-0.037-0.058-0.012-0.023-0.026-0.040-0.037-0.054-0.016-0.017-0.032-0.030-0.051-0.042-0.019-0.011-0.040-0.016-0.063-0.016-0.040 0-0.070 0.012-0.091 0.038-0.019 0.026-0.032 0.054-0.032 0.089 0 0.042 0.017 0.075 0.051 0.102s0.084 0.038 0.154 0.038c0.128 0 0.248-0.054 0.371-0.166 0.119-0.11 0.2-0.254 0.236-0.429l0.208-0.977h0.297l0.026-0.108h-0.301l0.024-0.124c0.035-0.163 0.072-0.276 0.116-0.346 0.044-0.068 0.091-0.105 0.145-0.107 0.016 0.021 0.026 0.040 0.037 0.056 0.009 0.017 0.021 0.037 0.037 0.056 0.017 0.017 0.032 0.032 0.049 0.042 0.019 0.012 0.040 0.016 0.067 0.016 0.040 0 0.072-0.012 0.091-0.038 0.017-0.026 0.028-0.056 0.028-0.091 0-0.040-0.017-0.072-0.051-0.1-0.033-0.026-0.084-0.038-0.154-0.038-0.058-0.002-0.121 0.012-0.187 0.042z"></path>
<path d="M9.508 14.23c4.529-0.534 9.907-4.608 14.756-4.793 5.159-0.194 5.428 4.583 5.428 4.583s0.332-5.119-5.672-5.019c-5.374 0.089-11.267 5.068-16.399 4.933-4.501-0.117-5.439-1.809-5.621-2.338 0.22 0.684 1.472 3.344 7.508 2.634z"></path>
<path d="M26.116 13.4c0.121-0.096 0.401-0.394 0.21-0.938-0.203-0.59-0.555-0.677-0.747-0.677h-0.037c0.033-0.039 0.073-0.095 0.086-0.152 0.017-0.101-0.019-0.215-0.019-0.219l-0.007-0.018h-0.016c0 0-0.007-0.002-0.019-0.002-0.046 0-0.131 0.005-0.192 0.040-0.044 0.024-0.086 0.093-0.116 0.149-0.009-0.075-0.042-0.182-0.13-0.278-0.138-0.156-0.376-0.235-0.702-0.235-0.313 0-0.546 0.077-0.693 0.229-0.105 0.107-0.142 0.224-0.156 0.299-0.028-0.042-0.068-0.091-0.119-0.119-0.084-0.044-0.192-0.047-0.217-0.047h-0.017l-0.003 0.016c-0.003 0.005-0.046 0.124-0.024 0.212 0.012 0.051 0.051 0.108 0.084 0.152-0.021-0.004-0.046-0.005-0.073-0.005-0.168 0-0.476 0.079-0.654 0.598-0.112 0.32-0.116 0.581-0.014 0.777 0.067 0.131 0.166 0.201 0.233 0.236-0.049 0.014-0.11 0.039-0.154 0.075-0.079 0.065-0.128 0.152-0.13 0.156l-0.011 0.019 0.016 0.012c0.005 0.004 0.121 0.091 0.208 0.105 0.054 0.007 0.124-0.009 0.173-0.019-0.058 0.136-0.159 0.528 0.345 0.861 0.25 0.165 0.473 0.247 0.66 0.247 0.194 0 0.308-0.086 0.367-0.154 0 0.049 0.005 0.11 0.028 0.156 0.044 0.095 0.142 0.163 0.147 0.166l0.014 0.009 0.014-0.009c0.003-0.004 0.107-0.072 0.143-0.156 0.019-0.046 0.023-0.112 0.023-0.165 0.063 0.066 0.186 0.165 0.385 0.165 0.173 0 0.367-0.075 0.576-0.222 0.57-0.397 0.499-0.793 0.443-0.94 0.049 0.019 0.122 0.039 0.182 0.030 0.102-0.012 0.196-0.056 0.2-0.058l0.017-0.009-0.003-0.019c-0.003-0.005-0.040-0.136-0.108-0.198-0.042-0.040-0.131-0.059-0.191-0.072zM23.895 11.475c0.028-0.012 0.072-0.016 0.135-0.016 0.077 0 0.168 0.007 0.25 0.016 0.061 0.004 0.114 0.007 0.147 0.007h0.009c0.021 0 0.056-0.004 0.098-0.007 0.073-0.007 0.175-0.019 0.264-0.019 0.105 0 0.17 0.016 0.2 0.042 0.056 0.049 0.172 0.184 0.093 0.425-0.067 0.2-0.213 0.382-0.215 0.385-0.003 0.004-0.011 0.004-0.014 0.004-0.002-0.002-0.238-0.105-0.425-0.105-0.189 0-0.438 0.124-0.441 0.126s-0.005 0.002-0.005 0.002c-0.005 0-0.009-0.004-0.011-0.005-0.011-0.011-0.222-0.282-0.241-0.481-0.021-0.196 0.038-0.332 0.157-0.373zM22.738 13.061c0.002-0.079 0.073-0.236 0.131-0.359 0.026-0.061 0.052-0.114 0.061-0.143 0.007-0.019 0.016-0.054 0.026-0.096 0.038-0.15 0.098-0.378 0.18-0.422 0.037-0.019 0.095-0.042 0.166-0.042 0.091 0 0.18 0.033 0.268 0.1 0.168 0.131 0.289 0.331 0.291 0.334 0.003 0.004 0.003 0.011-0.002 0.014-0.002 0.002-0.18 0.185-0.243 0.361-0.065 0.178-0.033 0.453-0.033 0.457s-0.002 0.011-0.009 0.012c-0.002 0-0.229 0.073-0.418 0.073-0.046 0-0.086-0.004-0.121-0.012-0.192-0.049-0.301-0.15-0.297-0.277zM24.259 14.427c-0.084 0.136-0.186 0.212-0.287 0.212-0.021 0-0.044-0.004-0.063-0.011-0.077-0.023-0.205-0.138-0.308-0.229-0.051-0.044-0.095-0.082-0.121-0.1-0.017-0.012-0.047-0.030-0.082-0.053-0.135-0.082-0.338-0.205-0.357-0.297-0.014-0.070-0.024-0.25 0.184-0.394 0.175-0.121 0.404-0.178 0.406-0.18 0.005 0 0.012 0.002 0.014 0.007s0.126 0.226 0.275 0.339c0.154 0.114 0.425 0.163 0.429 0.163 0.007 0 0.012 0.007 0.012 0.012 0 0.014 0.007 0.357-0.102 0.53zM24.476 13.544c0 0 0.005 0.047-0.003 0.070-0.011 0.023-0.042 0.046-0.042 0.046s-0.030-0.021-0.042-0.049c-0.014-0.026-0.007-0.068-0.007-0.068s-0.072 0.15-0.313-0.009c-0.184-0.123-0.096-0.271-0.096-0.271s-0.044 0.016-0.068 0.012c-0.023-0.004-0.052-0.026-0.052-0.026s0.011-0.035 0.033-0.054c0.023-0.018 0.065-0.023 0.065-0.023s-0.17-0.046-0.082-0.301c0.079-0.226 0.233-0.17 0.233-0.17s-0.030-0.037-0.037-0.059c-0.005-0.026 0.009-0.059 0.009-0.059s0.035-0.002 0.061 0.014c0.024 0.014 0.044 0.053 0.044 0.053s-0.005-0.177 0.25-0.177c0.268 0 0.245 0.178 0.245 0.178s0.032-0.049 0.054-0.061c0.019-0.012 0.058-0.012 0.058-0.012s0.011 0.035 0.005 0.063c-0.005 0.030-0.037 0.058-0.037 0.058s0.159-0.053 0.241 0.191c0.070 0.201-0.075 0.285-0.075 0.285s0.047 0.011 0.063 0.028c0.019 0.016 0.032 0.053 0.032 0.053s-0.030 0.021-0.058 0.024c-0.030 0.004-0.070-0.016-0.070-0.016s0.098 0.133-0.114 0.282c-0.208 0.149-0.296 0-0.296 0zM25.829 14.002c-0.047 0.065-0.194 0.154-0.313 0.226-0.058 0.033-0.107 0.061-0.131 0.082-0.016 0.012-0.044 0.035-0.073 0.063-0.116 0.1-0.287 0.25-0.381 0.25h-0.011c-0.072-0.007-0.247-0.051-0.326-0.29-0.063-0.203-0.052-0.436-0.051-0.438 0-0.007 0.003-0.011 0.009-0.012 0.003 0 0.254-0.053 0.408-0.163 0.152-0.11 0.284-0.355 0.284-0.357 0.003-0.007 0.009-0.009 0.014-0.007 0.016 0.004 0.348 0.101 0.48 0.25 0.133 0.15 0.166 0.292 0.093 0.396zM26.102 13.138c-0.030 0.061-0.126 0.201-0.359 0.201h-0.028c-0.213-0.011-0.43-0.103-0.43-0.103-0.007-0.004-0.009-0.007-0.009-0.014 0-0.002 0.038-0.254-0.011-0.436-0.051-0.182-0.238-0.387-0.238-0.39-0.003-0.004-0.003-0.011 0-0.016 0.007-0.011 0.215-0.287 0.404-0.359 0.182-0.068 0.332-0.049 0.402 0.053 0.046 0.066 0.075 0.235 0.102 0.371 0.012 0.063 0.023 0.121 0.033 0.15 0.007 0.021 0.019 0.056 0.033 0.093 0.056 0.145 0.142 0.367 0.1 0.45z"></path>
</symbol>
<symbol id="icon-see-tickets" viewBox="0 0 32 32">
<title>see-tickets</title>
<path d="M24.226 15.778c-0.234-0.354-0.646-0.532-1.174-0.532-0.704 0-1.674 0.562-1.674 1.772 0 0.118 0 0.266 0.030 0.414l2.818-1.654zM23.228 21c-1.878 0-3.638-1.446-3.638-3.658 0-2.064 1.408-3.746 3.58-3.746 1.79 0 3.138 1.504 3.138 2.654l-4.254 2.508c0.352 0.412 0.94 0.53 1.496 0.53 0.528 0 1.38-0.266 2.466-1.062l-0.382 2.066c-0.676 0.472-1.556 0.708-2.406 0.708v0zM17.064 15.778c-0.234-0.354-0.646-0.532-1.174-0.532-0.704 0-1.674 0.562-1.674 1.772 0 0.118 0 0.266 0.028 0.414l2.818-1.654zM16.068 21c-1.878 0-3.638-1.446-3.638-3.658 0-2.064 1.408-3.746 3.578-3.746 1.79 0 3.138 1.504 3.138 2.654l-4.254 2.508c0.352 0.412 0.94 0.53 1.496 0.53 0.528 0 1.38-0.266 2.464-1.062l-0.382 2.066c-0.676 0.472-1.554 0.708-2.406 0.708v0zM5.592 18.258c0.882 0.678 1.702 1.002 2.494 1.002 1.174 0 1.614-0.502 1.614-1.12 0-0.442-0.262-0.826-1.378-1.592-0.91-0.618-1.85-1.534-1.85-2.772 0-1.444 1.028-2.772 3.286-2.772 0.88 0 1.996 0.324 2.818 0.826l-0.41 1.71c-0.792-0.56-1.614-0.798-2.288-0.798-0.85 0-1.378 0.296-1.378 0.944 0 0.472 0.41 0.856 1.378 1.504 1.202 0.856 1.908 1.682 1.908 2.832 0 1.624-1.32 2.982-3.522 2.982-1.234 0-2.288-0.356-3.082-0.944l0.41-1.798z"></path>
</symbol>
<symbol id="icon-twitter" viewBox="0 0 32 32">
<title>twitter</title>
<path d="M32 7.076c-1.176 0.526-2.444 0.876-3.768 1.032 1.356-0.812 2.394-2.1 2.888-3.632-1.268 0.75-2.676 1.3-4.168 1.594-1.2-1.276-2.906-2.068-4.794-2.068-3.626 0-6.562 2.938-6.562 6.562 0 0.512 0.056 1.012 0.168 1.494-5.456-0.276-10.294-2.888-13.532-6.862-0.562 0.968-0.888 2.1-0.888 3.3 0 2.276 1.156 4.288 2.918 5.462-1.076-0.032-2.088-0.332-2.976-0.818 0 0.026 0 0.056 0 0.082 0 3.182 2.262 5.838 5.268 6.438-0.55 0.15-1.132 0.232-1.732 0.232-0.424 0-0.832-0.044-1.238-0.118 0.838 2.606 3.262 4.506 6.132 4.562-2.25 1.762-5.076 2.812-8.156 2.812-0.532 0-1.050-0.032-1.568-0.094 2.912 1.868 6.362 2.95 10.068 2.95 12.074 0 18.682-10.006 18.682-18.682 0-0.288-0.006-0.568-0.018-0.85 1.282-0.918 2.394-2.076 3.274-3.394z"></path>
</symbol>
</defs>
</svg>
